<?xml version="1.0" encoding="UTF-8"?>
<svg version="1.1" xmlns="http://www.w3.org/2000/svg" width="1024" height="1024">
<path d="M0 0 C337.92 0 675.84 0 1024 0 C1024 337.92 1024 675.84 1024 1024 C686.08 1024 348.16 1024 0 1024 C0 686.08 0 348.16 0 0 Z " fill="#FEFEFE" transform="translate(0,0)"/>
<path d="M0 0 C16.15505306 12.61184357 26.26958778 30.75983769 29 51 C29.92380604 61.1051622 28.74198409 71.04580522 27 81 C27.82242188 81.40089844 28.64484375 81.80179687 29.4921875 82.21484375 C45.98338307 90.61278514 56.5699356 102.55825435 62.75 120.1328125 C66.69173275 134.53108629 63.97160948 150.00743503 57.42578125 163.1640625 C53.42067715 169.79255647 48.34018415 175.42518562 43 181 C42.42121094 181.64195312 41.84242188 182.28390625 41.24609375 182.9453125 C34.38539298 190.28181131 26.02508922 196.02038511 18 202 C-3.5482042 217.68420564 -3.5482042 217.68420564 -21.51953125 237.1796875 C-23.54046466 239.6645291 -24.62662691 239.95021692 -27.8125 240.375 C-31 240 -31 240 -33.9375 237.9375 C-36 235 -36 235 -36.25 231.75 C-30.7889068 215.36672039 -11.27980535 202.75879344 2 193 C4.14949607 191.40066548 6.29345593 189.79415513 8.4375 188.1875 C9.38109375 187.48109375 10.3246875 186.7746875 11.296875 186.046875 C15.60464703 182.78492046 19.82887216 179.43464157 24 176 C24.76054687 175.38769531 25.52109375 174.77539062 26.3046875 174.14453125 C37.60137004 164.66548102 45.62462415 153.05984049 47.47265625 138.19921875 C47.95482063 126.09565659 44.15026935 115.94400105 36 107 C28.39015793 98.82583256 19.76397413 94.88951961 8.62719727 94.40820312 C-6.12832093 94.22171948 -16.5033691 98.74203851 -27.0859375 109.02734375 C-31.81776435 114.04017947 -35.19821044 119.43515148 -38.45703125 125.49609375 C-40 128 -40 128 -43 130 C-46.70429655 130.5636973 -48.36619952 130.45503625 -51.4375 128.25 C-53.85326471 125.55137676 -55.44598734 122.4740779 -57.1875 119.3125 C-64.06683751 107.2588332 -73.26326645 100.36549789 -86.27734375 95.8671875 C-90.71563023 94.83329495 -94.83306299 94.61598375 -99.375 94.625 C-100.21699951 94.62661133 -101.05899902 94.62822266 -101.92651367 94.62988281 C-108.04497697 94.75105226 -112.8231093 95.55660118 -118 99 C-119.0725 99.66 -120.145 100.32 -121.25 101 C-128.02877675 105.93001945 -131.85116406 110.72673206 -136 118 C-136.36738281 118.62648438 -136.73476562 119.25296875 -137.11328125 119.8984375 C-141.04831579 128.14149564 -140.23868372 140.50480435 -137.375 149 C-129.53187485 167.11843893 -113.5572279 179.53067155 -98.03735352 190.84008789 C-87.97732834 198.17496469 -78.53406392 206.05978357 -69.47753906 214.60595703 C-68.04082484 215.96148218 -66.59475525 217.30707011 -65.1484375 218.65234375 C-48.55438759 234.56860852 -37.20946712 254.40507762 -36.52758789 277.80078125 C-36.31595686 301.86304166 -44.05305165 322.69908164 -60.984375 340.140625 C-77.53631576 356.34547395 -98.66597244 362.2576029 -121.17675781 362.2487793 C-133.25401681 362.11626122 -143.23825097 359.61082642 -154 354 C-154.96679688 353.50757813 -155.93359375 353.01515625 -156.9296875 352.5078125 C-176.31162851 341.98618738 -189.83612787 323.95747201 -196.4921875 303.0625 C-197.86258678 297.49657061 -198.2382269 292.07917416 -198.3125 286.375 C-198.34150391 285.62476563 -198.37050781 284.87453125 -198.40039062 284.1015625 C-198.4414707 280.53707564 -198.31484229 278.43572534 -196.19921875 275.5078125 C-192.97989686 273.30060424 -190.80942127 273.45579696 -187 274 C-183.67950262 276.3502613 -183.05472443 277.71543294 -182.27734375 281.7578125 C-182.1499756 283.21237683 -182.03733801 284.66828712 -181.9375 286.125 C-180.20435579 304.37115711 -172.78112655 319.6569859 -158.75 331.75 C-145.09051087 342.44332067 -129.24156506 347.11958215 -112 346 C-93.90075179 343.40856311 -77.23713592 335.78892865 -66 321.01953125 C-57.94208307 308.85396526 -53.40244699 296.43297829 -53.5 281.75 C-53.50499512 280.75000977 -53.50999023 279.75001953 -53.51513672 278.71972656 C-53.71944411 269.96973418 -55.35740714 262.963328 -59 255 C-59.4228125 254.04351563 -59.845625 253.08703125 -60.28125 252.1015625 C-64.2323306 244.0845443 -70.01842198 237.55372896 -76 231 C-77.09828125 229.7934375 -77.09828125 229.7934375 -78.21875 228.5625 C-85.74303336 220.70130843 -94.57842068 214.35253073 -103.22265625 207.796875 C-111.08187546 201.83021534 -118.81971047 195.79611921 -126.28125 189.3359375 C-127.81639083 188.01695156 -129.36806574 186.71518722 -130.96875 185.4765625 C-143.84630355 175.45393827 -153.73712118 159.08127815 -156 143 C-157.58060982 126.5687352 -154.31802775 112.27197925 -144 99 C-134.41953807 87.71392553 -121.80232386 79.9291701 -107 78 C-89.25349995 76.71146048 -73.07615367 80.11686924 -58.8828125 91.5 C-54.52803811 95.38117823 -50.44617867 99.27244774 -47 104 C-47 104.66 -47 105.32 -47 106 C-44.41816433 103.49193106 -42.10220419 101.13627225 -39.9375 98.25 C-31.69660671 88.28904487 -17.05056803 79.35707813 -4 78 C0.67225852 77.85795522 5.32753061 77.88187577 10 78 C14.10129001 60.71599209 12.87793859 44.14347931 3.75390625 28.59375 C-4.90843674 15.78351448 -17.53705717 6.34187817 -32.6875 2.6875 C-48.69417821 0.04092681 -64.13508537 2.36253291 -78 11 C-81.58236152 13.77784812 -84.8166787 16.77667287 -88 20 C-88.56332031 20.54140625 -89.12664062 21.0828125 -89.70703125 21.640625 C-98.33521575 30.65582569 -102.97595249 43.71377194 -103.625 55.9375 C-103.810625 59.4334375 -103.810625 59.4334375 -104 63 C-109.28 63.66 -114.56 64.32 -120 65 C-120.84582376 44.27731793 -116.26341939 26.50722297 -102.3046875 10.45703125 C-74.90414731 -18.75473108 -32.63690044 -23.36757667 0 0 Z " fill="#3868B4" transform="translate(352,362)"/>
<path d="M0 0 C3.5625 0.375 3.5625 0.375 6 1.375 C8.00070568 3.93590327 7.92283274 5.95414456 7.85864258 9.1328125 C7.33500301 13.09745041 5.53232597 16.370469 3.6875 19.875 C-3.24305949 33.31979562 -5.42618224 49.21232665 -1.33984375 64.046875 C3.21158695 77.73149932 11.64906003 88.21698775 21.5625 98.375 C22.09673584 98.93405029 22.63097168 99.49310059 23.18139648 100.0690918 C27.37057819 104.37950957 31.81797391 108.08750495 36.625 111.6875 C37.36379395 112.24727539 38.10258789 112.80705078 38.86376953 113.38378906 C43.4989132 116.87881683 48.19493048 120.27781103 52.9375 123.625 C69.88206733 135.62113273 87.47968765 149.19256191 92.5625 170.375 C93.26991156 175.51304189 93.40842631 179.13099072 90.4375 183.5 C87.01514744 185.73196906 85.56227332 186.20828611 81.5625 185.375 C78.41450904 183.30018778 76.85632374 181.6277215 75.984375 177.91015625 C75.6967034 176.01099098 75.41301489 174.11121914 75.1328125 172.2109375 C71.73361234 155.30806546 53.42699795 144.63793005 40.51025391 135.22387695 C15.57622189 117.02695772 -13.2566347 94.5495181 -18.98828125 62.2734375 C-21.45475931 40.86869746 -18.57238124 21.49273484 -6.4375 3.375 C-4.1482595 0.64265526 -3.75589876 0.40973441 0 0 Z " fill="#3869B3" transform="translate(173.4375,466.625)"/>
<path d="M0 0 C5.38937415 -0.07464507 10.77844152 -0.12883434 16.16821289 -0.16479492 C17.99834441 -0.17979997 19.82844046 -0.20021059 21.65844727 -0.22631836 C24.30233558 -0.26306906 26.94574492 -0.27980937 29.58984375 -0.29296875 C30.79978249 -0.31619453 30.79978249 -0.31619453 32.03416443 -0.33988953 C40.39636841 -0.34231838 47.66857405 1.93795601 54.2109375 7.203125 C61.3091192 14.33230313 63.06720357 23.50680588 63.375 33.1875 C63.15697832 44.73117428 60.66193213 53.62633823 52.44140625 61.96875 C45.03823706 68.12818676 37.00546565 69.16114315 27.63671875 69.09765625 C26.84473587 69.0962413 26.05275299 69.09482635 25.23677063 69.09336853 C22.72030781 69.08779457 20.20393569 69.07524693 17.6875 69.0625 C15.97591275 69.05748163 14.26432409 69.05291931 12.55273438 69.04882812 C8.36845492 69.03783368 4.18424281 69.02058707 0 69 C0 67.35 0 65.7 0 64 C1.134375 63.690625 2.26875 63.38125 3.4375 63.0625 C6.78775099 62.37075469 6.78775099 62.37075469 8 61 C8.10919139 59.32308652 8.14906835 57.64160303 8.16113281 55.96118164 C8.17074036 54.88659195 8.1803479 53.81200226 8.19024658 52.70484924 C8.1966214 50.95022621 8.1966214 50.95022621 8.203125 49.16015625 C8.20882507 47.96772812 8.21452515 46.77529999 8.22039795 45.54673767 C8.22986454 43.01887911 8.23638848 40.49100812 8.24023438 37.96313477 C8.24994961 34.0826279 8.28096219 30.20264824 8.3125 26.32226562 C8.31902857 23.872399 8.32427961 21.42252856 8.328125 18.97265625 C8.3404718 17.80493179 8.3528186 16.63720734 8.36553955 15.43409729 C8.36253845 14.35635544 8.35953735 13.27861359 8.35644531 12.16821289 C8.36009094 11.21636612 8.36373657 10.26451935 8.36749268 9.28382874 C8.24622009 8.53016525 8.12494751 7.77650177 8 7 C5.08235 5.0549 3.37462715 4.54723683 0 4 C0 2.68 0 1.36 0 0 Z " fill="#3E6BB1" transform="translate(680,617)"/>
<path d="M0 0 C5.26524445 -0.09943082 10.52993343 -0.17173199 15.79589844 -0.21972656 C17.58440684 -0.23974959 19.37285054 -0.26697654 21.16113281 -0.30175781 C23.74300162 -0.35068955 26.3239995 -0.37306165 28.90625 -0.390625 C30.09112 -0.42159271 30.09112 -0.42159271 31.29992676 -0.45318604 C37.56753437 -0.455677 42.92526895 1.08767093 47.5657959 5.48309326 C51.5108892 10.0255503 52.3625032 13.77061495 52.27734375 19.58984375 C51.64116709 25.11830856 49.06509046 29.35332948 44.875 32.9375 C42 35 42 35 40 36 C41.74926722 41.09345454 44.5747847 45.49741216 47.375 50.0625 C47.85710938 50.86494141 48.33921875 51.66738281 48.8359375 52.49414062 C52.79756783 59.48025454 52.79756783 59.48025454 59.25 63.75 C59.8275 63.8325 60.405 63.915 61 64 C61 65.65 61 67.3 61 69 C51.44647373 69.61196965 51.44647373 69.61196965 46.75 67.625 C40.72781122 61.87654707 36.70224184 54.6538129 32.5625 47.5 C32.20816895 46.88850098 31.85383789 46.27700195 31.48876953 45.64697266 C29 41.24813112 29 41.24813112 29 39 C25.7 39 22.4 39 19 39 C19.14011038 42.81279106 19.28680438 46.62512562 19.4375 50.4375 C19.47681641 51.52611328 19.51613281 52.61472656 19.55664062 53.73632812 C19.59853516 54.77080078 19.64042969 55.80527344 19.68359375 56.87109375 C19.72025146 57.82943115 19.75690918 58.78776855 19.79467773 59.77514648 C19.75834424 61.97138925 19.75834424 61.97138925 21 63 C23.32817964 63.36760731 25.6618385 63.70241581 28 64 C28 65.65 28 67.3 28 69 C18.43 69 8.86 69 -1 69 C-1 67.35 -1 65.7 -1 64 C-0.43410156 63.87882813 0.13179688 63.75765625 0.71484375 63.6328125 C1.81505859 63.38144531 1.81505859 63.38144531 2.9375 63.125 C3.66839844 62.96257813 4.39929688 62.80015625 5.15234375 62.6328125 C7.20700294 62.17038477 7.20700294 62.17038477 8 60 C8.11054455 58.35168849 8.15913741 56.69903675 8.17700195 55.04711914 C8.19625481 53.50025169 8.19625481 53.50025169 8.21589661 51.9221344 C8.22328354 50.80443161 8.23067047 49.68672882 8.23828125 48.53515625 C8.246353 47.39090683 8.25442474 46.24665741 8.26274109 45.06773376 C8.27658767 42.64421101 8.28730724 40.22066871 8.29516602 37.79711914 C8.31241334 34.08117079 8.35629963 30.36610397 8.40039062 26.65039062 C8.41051412 24.29948573 8.4190313 21.94857325 8.42578125 19.59765625 C8.45204338 17.92413841 8.45204338 17.92413841 8.47883606 16.21681213 C8.47591049 15.18241501 8.47298492 14.14801788 8.4699707 13.08227539 C8.47583694 12.17119522 8.48170319 11.26011505 8.48774719 10.32142639 C8.19930567 7.84800187 8.19930567 7.84800187 6.11125183 6.22532654 C4.0445917 5.02588009 2.34168954 4.41815885 0 4 C0 2.68 0 1.36 0 0 Z " fill="#3E6BB2" transform="translate(484,617)"/>
<path d="M0 0 C1.9453125 -0.29296875 1.9453125 -0.29296875 4.125 -0.1875 C5.40375 -0.125625 6.6825 -0.06375 8 0 C10.65754195 5.81138147 13.06941103 11.65560431 15.2421875 17.6640625 C15.6784697 18.85677261 15.6784697 18.85677261 16.12356567 20.07357788 C17.04365784 22.58965462 17.95973219 25.10716471 18.875 27.625 C23.9767151 41.65092176 23.9767151 41.65092176 29.3203125 55.5859375 C29.78969238 56.78009277 30.25907227 57.97424805 30.74267578 59.20458984 C31.83213758 62.06868693 31.83213758 62.06868693 34 64 C36.57061311 64.64767793 36.57061311 64.64767793 39 65 C39 66.65 39 68.3 39 70 C30.09 70 21.18 70 12 70 C12 68.35 12 66.7 12 65 C14.31 64.67 16.62 64.34 19 64 C18.7098066 62.66634524 18.41774108 61.33309785 18.125 60 C17.96257813 59.2575 17.80015625 58.515 17.6328125 57.75 C16.8054906 54.15472458 15.89477131 50.57908524 15 47 C6.42 47.33 -2.16 47.66 -11 48 C-15.30949223 56.97867564 -15.30949223 56.97867564 -15 63 C-13.03177114 64.96822886 -9.65191291 64.66248381 -7 65 C-7 66.65 -7 68.3 -7 70 C-14.92 70 -22.84 70 -31 70 C-31 68.35 -31 66.7 -31 65 C-30.08089844 64.82726562 -29.16179688 64.65453125 -28.21484375 64.4765625 C-24.53819719 62.78789616 -23.80684415 61.44233156 -22.38916016 57.74194336 C-22.1163623 56.96085205 -21.84356445 56.17976074 -21.5625 55.375 C-21.25103027 54.54556885 -20.93956055 53.7161377 -20.61865234 52.86157227 C-19.64134914 50.24860291 -18.68660654 47.62811047 -17.73406982 45.00604248 C-15.58635247 39.13682936 -13.37685049 33.29019961 -11.18334961 27.43798828 C-9.81500892 23.78710732 -8.45588769 20.13298908 -7.10375977 16.47607422 C-6.46762722 14.76399125 -5.8314788 13.05191418 -5.1953125 11.33984375 C-4.90290176 10.54373184 -4.61049103 9.74761993 -4.30921936 8.92738342 C-3.09975884 5.68297237 -1.92909037 2.89363556 0 0 Z " fill="#3D6AAF" transform="translate(777,616)"/>
<path d="M0 0 C2.64 0 5.28 0 8 0 C11.302215 6.26636046 13.82841606 12.62849799 16.22265625 19.2890625 C16.60941025 20.35111908 16.99616425 21.41317566 17.39463806 22.50741577 C18.62178833 25.87831895 19.84273506 29.25141806 21.0625 32.625 C22.28625638 36.00556377 23.51145922 39.38556985 24.74107361 42.76400757 C25.50367899 44.85959226 26.26292382 46.95640386 27.01832581 49.05459595 C29.5627058 56.23108238 29.5627058 56.23108238 33 63 C36.06361777 64.43968727 36.06361777 64.43968727 39 65 C39 66.65 39 68.3 39 70 C30.09 70 21.18 70 12 70 C12 68.35 12 66.7 12 65 C14.31 64.34 16.62 63.68 19 63 C18.40656104 57.30298599 17.10935397 53.62494392 15 48 C2.13 47.505 2.13 47.505 -11 47 C-13.74809942 55.21827728 -13.74809942 55.21827728 -14 63 C-11.69 63.66 -9.38 64.32 -7 65 C-7 66.65 -7 68.3 -7 70 C-14.92 70 -22.84 70 -31 70 C-31 68.35 -31 66.7 -31 65 C-29.63875 64.7834375 -29.63875 64.7834375 -28.25 64.5625 C-24.66600207 62.83942407 -24.46672542 62.50673014 -23.04492188 59.05273438 C-22.7074292 58.24094727 -22.36993652 57.42916016 -22.0222168 56.59277344 C-20.31932604 52.27352342 -18.65118756 47.94486336 -17.03125 43.59375 C-16.66906372 42.62900757 -16.30687744 41.66426514 -15.93371582 40.67028809 C-14.78656845 37.61448328 -13.64284626 34.55741577 -12.5 31.5 C-10.99269971 27.46757338 -9.48180524 23.43652027 -7.96875 19.40625 C-7.63008911 18.49661499 -7.29142822 17.58697998 -6.94250488 16.64978027 C-4.82273373 11.00462689 -2.5147596 5.48071508 0 0 Z " fill="#3D69AF" transform="translate(442,616)"/>
<path d="M0 0 C19.93112948 0 19.93112948 0 25 5 C31.76259445 11.94536727 32.50361457 19.05045035 32.4375 28.3125 C32.4674707 29.78493164 32.4674707 29.78493164 32.49804688 31.28710938 C32.49311403 38.74064325 31.39787333 46.1225841 26.32373047 51.9128418 C18.07585721 59.59830412 11.76285166 59 0 59 C0 39.53 0 20.06 0 0 Z " fill="#F7FAFC" transform="translate(699,622)"/>
<path d="M0 0 C8.91 0 17.82 0 27 0 C27 1.32 27 2.64 27 4 C24.69 4.66 22.38 5.32 20 6 C19.92387989 12.74431115 19.87137068 19.48851134 19.83520508 26.2331543 C19.82012692 28.52714172 19.7996613 30.82110037 19.77368164 33.11499023 C19.73725642 36.41397205 19.72026369 39.7125724 19.70703125 43.01171875 C19.69154739 44.03585373 19.67606354 45.05998871 19.66011047 46.11515808 C19.6586231 52.42074625 20.20164993 56.15190149 24.7578125 60.7890625 C27.87521293 62.47267597 30.34951206 62.39774508 33.875 62.375 C35.66550781 62.38660156 35.66550781 62.38660156 37.4921875 62.3984375 C42.19698797 61.86403923 45.51797377 60.72585686 48.65307617 57.07495117 C50.68723768 52.43107512 50.36876188 48.0248366 50.29296875 43.01171875 C50.28660149 41.42421562 50.28660149 41.42421562 50.28010559 39.80464172 C50.26334362 36.43199988 50.22569512 33.05996055 50.1875 29.6875 C50.17244999 27.3977951 50.15876214 25.10808082 50.14648438 22.81835938 C50.11344823 17.2120348 50.06327317 11.60606046 50 6 C47.36 5.34 44.72 4.68 42 4 C42 2.68 42 1.36 42 0 C49.92 0 57.84 0 66 0 C66 1.32 66 2.64 66 4 C63.69 4.33 61.38 4.66 59 5 C58.99857498 5.57914154 58.99714996 6.15828308 58.99568176 6.75497437 C58.97588175 12.82328692 58.9213894 18.89060746 58.84741211 24.95849609 C58.82432106 27.21818913 58.80985744 29.47798844 58.80444336 31.73779297 C58.7950889 35.00034127 58.75395464 38.26123846 58.70703125 41.5234375 C58.7109639 42.52176605 58.71489655 43.5200946 58.71894836 44.54867554 C58.55176357 52.7214022 56.3568152 59.55711261 50.5625 65.5 C44.69134109 68.93677595 39.26180656 69.36456477 32.625 69.375 C31.81289063 69.39949219 31.00078125 69.42398438 30.1640625 69.44921875 C24.28479739 69.47748445 19.92085616 68.26858717 15 65 C8.34529486 58.34529486 7.55966877 51.27037008 7.55859375 42.32421875 C7.54538589 41.31784866 7.53217804 40.31147858 7.51856995 39.27461243 C7.47785335 36.07887926 7.45603762 32.88343315 7.4375 29.6875 C7.41373038 26.47379977 7.38569647 23.26037038 7.34571838 20.04682922 C7.32131173 18.05147266 7.30649362 16.05597159 7.30210876 14.06047058 C7.29192215 13.16226089 7.28173553 12.26405121 7.27124023 11.33862305 C7.26696518 10.54699265 7.26269012 9.75536224 7.25828552 8.93974304 C7.1683981 6.76333831 7.1683981 6.76333831 5 5 C2.42938689 4.35232207 2.42938689 4.35232207 0 4 C0 2.68 0 1.36 0 0 Z " fill="#3E6AB0" transform="translate(609,617)"/>
<path d="M0 0 C3.1875 2.1875 3.1875 2.1875 5.1875 5.1875 C5.73302912 11.29742617 5.73302912 11.29742617 4 14.125 C1.62708382 15.51601983 -0.10936424 15.40667317 -2.8125 15.1875 C-3.039375 13.929375 -3.26625 12.67125 -3.5 11.375 C-4.26346579 8.42049197 -4.63003951 7.36443138 -6.875 5.1875 C-10.96945326 3.79364357 -14.54087109 3.39960461 -18.8125 4.1875 C-22.08227606 5.87383188 -22.08227606 5.87383188 -23.8125 9.1875 C-24.7635732 13.98216656 -24.71579153 17.76804188 -22.0625 21.9375 C-16.57631869 25.73562552 -10.57304649 28.54812699 -4.46484375 31.2109375 C1.23103973 33.77902369 5.361927 37.53635401 8.1875 43.1875 C8.92482798 50.36738232 8.46237434 56.23371462 4.1875 62.1875 C-0.29723866 67.06795089 -6.68884585 68.66853672 -13.109375 69.4765625 C-20.32533469 69.75803611 -27.28714187 68.30055476 -32.875 63.625 C-35.72471359 60.03987645 -36.15649263 57.72891974 -36.09765625 53.09765625 C-35.8125 51.1875 -35.8125 51.1875 -34.0625 49.1875 C-31.8125 48.1875 -31.8125 48.1875 -27.8125 48.1875 C-27.72613281 48.77917969 -27.63976562 49.37085938 -27.55078125 49.98046875 C-26.84644826 53.94153411 -26.04601515 56.81839541 -23.875 60.25 C-19.29494384 63.14758655 -15.08896872 62.92541217 -9.8125 62.1875 C-6.07219815 60.58451349 -5.08091535 59.59012302 -2.8125 56.1875 C-2.42190181 54.07693525 -2.42190181 54.07693525 -2.4375 51.8125 C-2.40914063 51.06226563 -2.38078125 50.31203125 -2.3515625 49.5390625 C-3.03207965 46.06727164 -4.26418123 44.66600182 -6.8125 42.1875 C-9.85588681 40.42708088 -13.0277245 39.02482097 -16.25 37.625 C-30.46599551 31.35610327 -30.46599551 31.35610327 -34.0859375 23.46875 C-35.78168119 18.14447949 -35.46754952 13.11625693 -33.6875 7.875 C-26.41709759 -2.54591012 -11.44218039 -5.47964969 0 0 Z " fill="#3C6AB1" transform="translate(399.8125,617.8125)"/>
<path d="M0 0 C8.91 0 17.82 0 27 0 C27 1.32 27 2.64 27 4 C25.02 4.66 23.04 5.32 21 6 C21.41472214 12.25193622 24.4713586 16.99139829 27.5 22.3125 C28.01175781 23.23095703 28.52351562 24.14941406 29.05078125 25.09570312 C31.18422476 29.29231047 31.18422476 29.29231047 34 33 C36.01725187 29.44700785 38.01067312 25.88119112 40 22.3125 C40.57234375 21.30509766 41.1446875 20.29769531 41.734375 19.25976562 C42.27578125 18.28330078 42.8171875 17.30683594 43.375 16.30078125 C43.87773438 15.40528564 44.38046875 14.50979004 44.8984375 13.5871582 C46.07171997 10.83155661 46.2240122 8.9611613 46 6 C44.02 5.34 42.04 4.68 40 4 C40 2.68 40 1.36 40 0 C47.59 0 55.18 0 63 0 C63 1.32 63 2.64 63 4 C62.23381348 4.2489502 61.46762695 4.49790039 60.67822266 4.75439453 C57.66814089 6.15434323 56.84559776 7.13566704 55.1484375 9.9296875 C54.64538086 10.73760742 54.14232422 11.54552734 53.62402344 12.37792969 C53.0880957 13.24321289 52.55216797 14.10849609 52 15 C50.78600587 16.77491113 49.56978196 18.54829879 48.3515625 20.3203125 C39.4113968 33.97534431 35.00385369 45.54189595 38 62 C39.49743119 63.49743119 40.98824239 63.33202693 43.0625 63.5625 C44.361875 63.706875 45.66125 63.85125 47 64 C47 65.65 47 67.3 47 69 C37.1 69 27.2 69 17 69 C17 67.35 17 65.7 17 64 C19.64 63.34 22.28 62.68 25 62 C27.08620376 44.34009998 23.38113807 33.21244999 13.61645508 18.52026367 C11.60419237 15.38288444 9.89478838 12.12745686 8.2265625 8.79663086 C6.11046617 5.69703833 3.51752626 5.03456655 0 4 C0 2.68 0 1.36 0 0 Z " fill="#3D6AB1" transform="translate(808,617)"/>
<path d="M0 0 C8.58 0 17.16 0 26 0 C26 1.32 26 2.64 26 4 C23.69 4.66 21.38 5.32 19 6 C19.53367675 11.44462634 20.51696627 16.0471658 22.43359375 21.2109375 C22.79059105 22.19049911 22.79059105 22.19049911 23.15480042 23.18984985 C23.90776148 25.25458705 24.67134493 27.31512561 25.4375 29.375 C31.71096215 46.27200408 31.71096215 46.27200408 33 55 C33.66 55 34.32 55 35 55 C35.21527344 53.8553125 35.43054688 52.710625 35.65234375 51.53125 C37.15867014 44.7574263 39.51739535 38.24777161 41.7956543 31.70410156 C42.56971435 29.4792642 43.33517372 27.25159785 44.09960938 25.0234375 C44.58804405 23.60920304 45.07695852 22.19513417 45.56640625 20.78125 C45.79558243 20.11468384 46.02475861 19.44811768 46.26087952 18.76135254 C47.88424529 14.11575471 47.88424529 14.11575471 49 13 C49.04092937 10.66702567 49.04241723 8.33294775 49 6 C46.69 5.34 44.38 4.68 42 4 C42 2.68 42 1.36 42 0 C49.59 0 57.18 0 65 0 C65 1.32 65 2.64 65 4 C63.02 4.33 61.04 4.66 59 5 C58.38729248 6.86736816 58.38729248 6.86736816 57.76220703 8.77246094 C55.87518941 14.43144454 53.84316329 20.03477553 51.8046875 25.640625 C50.99855425 27.86713549 50.19256901 30.09369957 49.38671875 32.3203125 C48.12641715 35.79908007 46.8650264 39.27743982 45.60107422 42.75488281 C44.37408294 46.13231525 43.15154843 49.51133375 41.9296875 52.890625 C41.55053192 53.93027405 41.17137634 54.9699231 40.7807312 56.04107666 C40.43011627 57.01268738 40.07950134 57.9842981 39.71826172 58.98535156 C39.40976288 59.83534729 39.10126404 60.68534302 38.78341675 61.56109619 C37.99191269 64.02517712 37.45704951 66.45452021 37 69 C34.03 69 31.06 69 28 69 C27.51644043 67.62448975 27.03288086 66.24897949 26.53466797 64.83178711 C24.71513764 59.65877328 22.89136754 54.4872622 21.06640625 49.31616211 C20.28174597 47.09097489 19.49818905 44.86539825 18.71582031 42.6394043 C16.50244369 36.34316863 14.27069975 30.05417516 12.00231934 23.77752686 C11.36574365 22.01351214 10.73347939 20.24793093 10.10705566 18.48028564 C9.34285351 16.33476292 8.55544623 14.19967942 7.7578125 12.06640625 C7.33902832 10.92244385 6.92024414 9.77848145 6.48876953 8.59985352 C5.19465336 5.79404877 5.19465336 5.79404877 2.32763672 4.62084961 C1.5595166 4.41596924 0.79139648 4.21108887 0 4 C0 2.68 0 1.36 0 0 Z " fill="#3C68AD" transform="translate(542,617)"/>
<path d="M0 0 C5.26524445 -0.09943082 10.52993343 -0.17173199 15.79589844 -0.21972656 C17.58440684 -0.23974959 19.37285054 -0.26697654 21.16113281 -0.30175781 C23.74300162 -0.35068955 26.3239995 -0.37306165 28.90625 -0.390625 C30.09112 -0.42159271 30.09112 -0.42159271 31.29992676 -0.45318604 C37.56753437 -0.455677 42.92526895 1.08767093 47.5657959 5.48309326 C51.5108892 10.0255503 52.3625032 13.77061495 52.27734375 19.58984375 C51.64116709 25.11830856 49.06509046 29.35332948 44.875 32.9375 C42 35 42 35 40 36 C41.74926722 41.09345454 44.5747847 45.49741216 47.375 50.0625 C47.85710938 50.86494141 48.33921875 51.66738281 48.8359375 52.49414062 C52.79756783 59.48025454 52.79756783 59.48025454 59.25 63.75 C59.8275 63.8325 60.405 63.915 61 64 C61 65.65 61 67.3 61 69 C51.44647373 69.61196965 51.44647373 69.61196965 46.75 67.625 C41.65166247 62.75840509 38.01995766 57.10636515 34.87109375 50.82421875 C34.49831299 50.10073242 34.12553223 49.37724609 33.74145508 48.63183594 C33.00937906 47.19297758 32.30606605 45.73904015 31.63549805 44.27050781 C30.57089319 42.18604419 29.68763162 40.62779842 28 39 C24.97738879 38.09990782 22.14215486 37.9256722 19 38 C19 37.67 19 37.34 19 37 C22.3 37 25.6 37 29 37 C29 36.34 29 35.68 29 35 C25.7 35 22.4 35 19 35 C19 34.67 19 34.34 19 34 C20.06927734 33.94392578 20.06927734 33.94392578 21.16015625 33.88671875 C27.04056153 33.48308393 31.90677543 33.07715651 37 30 C40.41299735 25.59613245 40.51633517 21.01929778 40.34765625 15.62890625 C39.8445478 11.82450192 38.66642937 9.73659857 36 7 C30.80953652 4.34146992 24.73834588 4.38800203 19 4 C19 3.67 19 3.34 19 3 C22.63 2.67 26.26 2.34 30 2 C20.43 1.67 10.86 1.34 1 1 C1 1.66 1 2.32 1 3 C2.98 3.495 2.98 3.495 5 4 C3.35 4 1.7 4 0 4 C0 2.68 0 1.36 0 0 Z " fill="#3B68AF" transform="translate(484,617)"/>
<path d="M0 0 C14 0 14 0 19 3 C22.58013813 6.95049725 22.50864178 11.17553322 22.34375 16.2734375 C21.80301102 20.56248073 20.74731324 22.61869139 18 26 C11.70619322 29.98179612 8.14599216 29 0 29 C0 19.43 0 9.86 0 0 Z " fill="#F7FAFC" transform="translate(503,622)"/>
<path d="M0 0 C1.69189453 -0.02320313 1.69189453 -0.02320313 3.41796875 -0.046875 C11.57374889 -0.00826776 11.57374889 -0.00826776 15.74609375 2.28125 C17.59168369 4.61598292 18.15992916 5.56566307 18.0625 8.5 C18.06443359 9.49 18.06443359 9.49 18.06640625 10.5 C17.23974597 13.41896595 15.84007812 14.59537016 13.5 16.5 C9.06105922 17.32990379 4.57032628 17.10260102 0.0625 17.0625 C-1.16533203 17.08634766 -2.39316406 17.11019531 -3.65820312 17.13476562 C-13.68564271 17.11838984 -13.68564271 17.11838984 -16.83984375 14.1875 C-18.5 11.5 -18.5 11.5 -18.625 7.9375 C-15.6625365 -1.11447182 -8.14792613 -0.11174299 0 0 Z " fill="#3C6CB5" transform="translate(202.5,413.5)"/>
<path d="M0 0 C1.7634375 -0.02900391 1.7634375 -0.02900391 3.5625 -0.05859375 C13.13240743 -0.00421928 13.13240743 -0.00421928 16.2734375 2.94140625 C18.56023575 6.49577366 18.7537228 8.47952463 18 12.625 C13.40997463 17.24764852 9.79106021 17.16761881 3.5625 17.22070312 C2.386875 17.20974609 1.21125 17.19878906 0 17.1875 C-1.175625 17.21134766 -2.35125 17.23519531 -3.5625 17.25976562 C-13.1491953 17.24342467 -13.1491953 17.24342467 -16.2734375 14.27734375 C-18.41763338 10.98343197 -18.80283718 9.47861848 -18 5.625 C-13.61260007 -1.10499355 -7.43171919 -0.12223222 0 0 Z " fill="#386AB6" transform="translate(410,413.375)"/>
<path d="M0 0 C2.84534146 2.12568407 3.87506126 3.33173497 4.53344727 6.85327148 C4.5690447 10.38269079 4.5938986 13.9079274 4.5625 17.4375 C4.58634766 18.66533203 4.61019531 19.89316406 4.63476562 21.15820312 C4.61839004 31.18551817 4.61839004 31.18551817 1.65625 34.3125 C-1.60350883 36.38340561 -3.20953694 36.72583335 -7 36 C-9.30275556 34.1329009 -10.67823871 32.64352259 -12 30 C-12.2694968 26.068205 -12.23162105 22.12748784 -12.25 18.1875 C-12.270625 17.09373047 -12.29125 15.99996094 -12.3125 14.87304688 C-12.31765625 13.81537109 -12.3228125 12.75769531 -12.328125 11.66796875 C-12.3374707 10.70141357 -12.34681641 9.7348584 -12.35644531 8.73901367 C-11.93491586 5.49987744 -10.90920135 3.62762116 -9 1 C-5.90826248 -0.54586876 -3.40570448 -0.29359521 0 0 Z " fill="#3F6DB5" transform="translate(310,300)"/>
<path d="M0 0 C3.36864139 1.48754902 6.47687072 3.34659261 9.625 5.25 C10.470625 5.74113281 11.31625 6.23226563 12.1875 6.73828125 C20.20309359 11.47936579 20.20309359 11.47936579 23 15 C23.5625 17.9375 23.5625 17.9375 23 21 C20.71005525 24.09816055 19.27692572 25.76941706 15.42578125 26.46484375 C10.35435297 25.7767024 6.64231386 23.31454085 2.3125 20.6875 C1.45849609 20.18798828 0.60449219 19.68847656 -0.27539062 19.17382812 C-7.8575144 14.6769676 -7.8575144 14.6769676 -10 12 C-10.75912409 5.16788321 -10.75912409 5.16788321 -8.375 1.5 C-5.17033728 -0.52399751 -3.78951994 -0.46297302 0 0 Z " fill="#3C69B1" transform="translate(210,357)"/>
<path d="M0 0 C3.4375 0.875 3.4375 0.875 5.375 2 C7.1009366 5.04577047 7.18295536 7.54772366 6.4375 10.875 C4.72468521 14.71853284 2.6068951 18.27409929 0.4375 21.875 C-0.10003906 22.81859375 -0.63757813 23.7621875 -1.19140625 24.734375 C-5.15008803 31.60005869 -5.15008803 31.60005869 -8.5625 33.875 C-12.10200857 34.32685216 -13.89576715 34.29609443 -16.9375 32.375 C-19.20043528 28.89356111 -19.22442654 25.86258037 -18.5625 21.875 C-17.14133802 18.39447235 -15.27572967 15.26211476 -13.3125 12.0625 C-12.82136719 11.21751953 -12.33023437 10.37253906 -11.82421875 9.50195312 C-6.03760307 -0.21184572 -6.03760307 -0.21184572 0 0 Z " fill="#3D6BB2" transform="translate(364.5625,315.125)"/>
<path d="M0 0 C5.96366763 1.46049003 8.41188667 6.64388508 11.44140625 11.56640625 C12.27894683 12.97851768 13.11092474 14.39394219 13.9375 15.8125 C14.34331299 16.49699219 14.74912598 17.18148438 15.16723633 17.88671875 C17.45989591 21.96518251 18.75388968 24.94519088 18.0625 29.75 C16 32.6875 16 32.6875 13.0625 34.75 C9.5 34.875 9.5 34.875 6.0625 33.75 C2.18188382 29.62031736 -0.44120975 24.66777557 -3.1875 19.75 C-3.64640625 18.9559375 -4.1053125 18.161875 -4.578125 17.34375 C-5.01125 16.5703125 -5.444375 15.796875 -5.890625 15 C-6.28411133 14.30390625 -6.67759766 13.6078125 -7.08300781 12.890625 C-8.11077492 10.31592158 -8.23504796 8.50036844 -7.9375 5.75 C-5.50488821 2.53036675 -3.93544161 1.0047936 0 0 Z " fill="#3D6AB1" transform="translate(248.9375,314.25)"/>
<path d="M0 0 C1.9375 1.125 1.9375 1.125 3 3 C3.5 6.375 3.5 6.375 3 10 C-0.88347628 14.7140019 -5.67075669 17.41041695 -10.9375 20.3125 C-12.11602539 20.9940918 -12.11602539 20.9940918 -13.31835938 21.68945312 C-17.65615463 24.10337266 -20.89460697 25.77237413 -26 25 C-28.375 23.4375 -28.375 23.4375 -30 21 C-30.5625 17.5625 -30.5625 17.5625 -30 14 C-26.11367313 9.31647787 -21.35890588 6.55564352 -16.125 3.625 C-15.34769531 3.16222656 -14.57039063 2.69945312 -13.76953125 2.22265625 C-8.7931983 -0.57914466 -5.7477466 -1.61908355 0 0 Z " fill="#3969B4" transform="translate(410,358)"/>
<path d="M0 0 C0.66 0 1.32 0 2 0 C3.28948279 3.76937464 4.570977 7.54136157 5.84521484 11.31591797 C6.2795637 12.59888279 6.71606654 13.88112052 7.15478516 15.16259766 C7.78597355 17.00749978 8.40871559 18.85528477 9.03125 20.703125 C9.40830078 21.81333008 9.78535156 22.92353516 10.17382812 24.06738281 C11 27 11 27 11 31 C4.07 31 -2.86 31 -10 31 C-6.625 19.75 -6.625 19.75 -5.17578125 15.4296875 C-4.86962891 14.51445313 -4.56347656 13.59921875 -4.24804688 12.65625 C-3.78495117 11.27953125 -3.78495117 11.27953125 -3.3125 9.875 C-2.83200195 8.44027344 -2.83200195 8.44027344 -2.34179688 6.9765625 C-1.56258967 4.65057084 -0.78197326 2.32506289 0 0 Z " fill="#EFF5F9" transform="translate(778,627)"/>
<path d="M0 0 C1.99312734 2.98969101 2.99508847 5.52732524 4.1640625 8.91015625 C4.56367188 10.06451172 4.96328125 11.21886719 5.375 12.40820312 C5.99375 14.21708008 5.99375 14.21708008 6.625 16.0625 C7.04523438 17.27228516 7.46546875 18.48207031 7.8984375 19.72851562 C11 28.73613789 11 28.73613789 11 31 C4.07 31 -2.86 31 -10 31 C-9.2814732 25.97031237 -8.67935748 22.61522724 -6.93359375 18.06640625 C-6.53076172 17.00615234 -6.12792969 15.94589844 -5.71289062 14.85351562 C-5.29201172 13.76748047 -4.87113281 12.68144531 -4.4375 11.5625 C-4.01275391 10.44939453 -3.58800781 9.33628906 -3.15039062 8.18945312 C-2.10669884 5.45709149 -1.05641767 2.72746098 0 0 Z " fill="#EFF5FA" transform="translate(444,627)"/>
<path d="M0 0 C0.66 0 1.32 0 2 0 C2.33 2.97 2.66 5.94 3 9 C5.97 9.33 8.94 9.66 12 10 C12 11.32 12 12.64 12 14 C4.41 14 -3.18 14 -11 14 C-11 13.01 -11 12.02 -11 11 C-9.906875 10.79375 -8.81375 10.5875 -7.6875 10.375 C-3.80869401 9.34996171 -3.80869401 9.34996171 -2.125 6.0625 C-1.38661517 4.05245241 -0.67716346 2.03149037 0 0 Z " fill="#3465B0" transform="translate(423,671)"/>
<path d="M0 0 C3.94842798 1.69907903 7.11523253 4.33027169 10.4375 7 C11.69871066 8.00324323 12.96044048 9.00583412 14.22265625 10.0078125 C14.85703613 10.5121582 15.49141602 11.01650391 16.14501953 11.53613281 C18.86393609 13.68177952 21.61947437 15.77653479 24.375 17.875 C44.84249688 33.58965036 44.84249688 33.58965036 54 42.6875 C54.51054932 43.19265137 55.02109863 43.69780273 55.54711914 44.21826172 C59 47.74086713 59 47.74086713 59 50 C59.99 50.33 60.98 50.66 62 51 C61.34 51.66 60.68 52.32 60 53 C59.33355469 52.24976563 58.66710937 51.49953125 57.98046875 50.7265625 C47.27440153 38.78223158 35.63762148 29.09387863 22.76953125 19.5625 C17.3617439 15.5471623 12.14198759 11.35161141 7 7 C6.27039063 6.39285156 5.54078125 5.78570313 4.7890625 5.16015625 C3.16987574 3.80016737 1.58043682 2.40483273 0 1 C0 0.67 0 0.34 0 0 Z " fill="#486CA4" transform="translate(223,548)"/>
<path d="M0 0 C0.99 0.495 0.99 0.495 2 1 C2.00364563 1.58802399 2.00729126 2.17604797 2.01104736 2.78189087 C2.05292972 8.91440031 2.12231547 15.04616533 2.20751953 21.17822266 C2.23570652 23.46525621 2.25693231 25.75238677 2.27099609 28.03955078 C2.29245638 31.33155906 2.33912471 34.62240378 2.390625 37.9140625 C2.39185364 38.93303619 2.39308228 39.95200989 2.39434814 41.00186157 C2.51909872 47.07876918 3.24677937 50.22767442 7 55 C7 55.99 7 56.98 7 58 C2.71125104 54.30280262 0.33778572 50.17555106 -0.25961304 44.55935669 C-0.3459702 41.71308569 -0.3374131 38.8823844 -0.29296875 36.03515625 C-0.28872391 35.00184677 -0.28447906 33.96853729 -0.28010559 32.90391541 C-0.26339394 29.62317178 -0.22575511 26.34305608 -0.1875 23.0625 C-0.17244348 20.83008703 -0.15875677 18.59766438 -0.14648438 16.36523438 C-0.1135151 10.90994419 -0.06339087 5.45501698 0 0 Z " fill="#4C6FA4" transform="translate(617,623)"/>
<path d="M0 0 C0.66 0.33 1.32 0.66 2 1 C4.13789992 7.48951181 4.38525534 13.70394716 4.375 20.5 C4.37411377 21.55501709 4.37322754 22.61003418 4.37231445 23.69702148 C4.19784571 35.32443299 1.72179826 45.37933629 -3 56 C-4.34194745 51.97415766 -3.14155639 50.60304634 -1.5625 46.6875 C1.46626063 38.29347703 1.45093104 29.86543834 1.375 21.0625 C1.37031708 20.37731293 1.36563416 19.69212585 1.36080933 18.98617554 C1.9602857 12.03437734 1.9602857 12.03437734 0 6 C-0.04080783 4.00041636 -0.04254356 1.99954746 0 0 Z " fill="#496EA6" transform="translate(311,622)"/>
<path d="M0 0 C4.92959122 -0.04942899 9.85903825 -0.08573318 14.78881836 -0.10986328 C16.46592725 -0.11992237 18.14301861 -0.13357122 19.82006836 -0.15087891 C22.23035002 -0.17513152 24.64039986 -0.1864839 27.05078125 -0.1953125 C28.17592888 -0.21079636 28.17592888 -0.21079636 29.32380676 -0.22659302 C33.10300779 -0.227408 34.77414399 -0.15057067 38 2 C38 2.66 38 3.32 38 4 C31.4 4 24.8 4 18 4 C18 3.34 18 2.68 18 2 C12.06 1.67 6.12 1.34 0 1 C0 0.67 0 0.34 0 0 Z " fill="#3462A8" transform="translate(682,617)"/>
<path d="M0 0 C-0.99 0.66 -1.98 1.32 -3 2 C-1.68 2.66 -0.36 3.32 1 4 C-11.21 4 -23.42 4 -36 4 C-35.67 3.01 -35.34 2.02 -35 1 C-35 1.66 -35 2.32 -35 3 C-29.06 2.67 -23.12 2.34 -17 2 C-17.33 1.34 -17.66 0.68 -18 0 C-15.75067773 -0.1954625 -13.50049858 -0.38108226 -11.25 -0.5625 C-9.99703125 -0.66691406 -8.7440625 -0.77132812 -7.453125 -0.87890625 C-4.60547636 -0.97876723 -2.65713933 -0.90584295 0 0 Z " fill="#3260A6" transform="translate(717,681)"/>
<path d="M0 0 C0 0.99 0 1.98 0 3 C-1.63978318 4.04349839 -3.31464976 5.03182008 -5 6 C-7.39553903 7.93028972 -9.70267994 9.95425966 -12 12 C-11.62095792 15.29075996 -11.62095792 15.29075996 -10 18 C-8.65252916 18.23075082 -7.29622435 18.41153063 -5.9375 18.5625 C-4.638125 18.706875 -3.33875 18.85125 -2 19 C-4 21 -4 21 -6.875 21.375 C-10 21 -10 21 -12.375 19.4375 C-14.64970619 16.02544071 -14.63534983 14.02388226 -14 10 C-10.42251171 5.15308038 -5.26118419 2.69363461 0 0 Z " fill="#496DA6" transform="translate(394,362)"/>
<path d="M0 0 C4.25268569 -0.67376937 8.57534677 -0.46279208 12.875 -0.4375 C14.07253906 -0.45748047 15.27007812 -0.47746094 16.50390625 -0.49804688 C17.65503906 -0.49740234 18.80617188 -0.49675781 19.9921875 -0.49609375 C21.57555908 -0.49887329 21.57555908 -0.49887329 23.19091797 -0.50170898 C26.63252849 0.11297115 27.81119047 1.34704706 30 4 C29.01 4.495 29.01 4.495 28 5 C28 4.34 28 3.68 28 3 C18.1 3 8.2 3 -2 3 C-1.34 2.01 -0.68 1.02 0 0 Z " fill="#547AB2" transform="translate(397,414)"/>
<path d="M0 0 C4.4840341 -0.04951788 8.96792239 -0.08577526 13.45214844 -0.10986328 C14.97691623 -0.11990744 16.50166484 -0.13354531 18.02636719 -0.15087891 C20.22075138 -0.17519738 22.41488042 -0.18649889 24.609375 -0.1953125 C25.92905273 -0.20578613 27.24873047 -0.21625977 28.60839844 -0.22705078 C31.73220559 -0.0179275 33.40580238 0.33394864 36 2 C31.72254526 4.85163649 29.30222614 5.09082394 24.3125 4.5625 C23.31863281 4.46066406 22.32476562 4.35882812 21.30078125 4.25390625 C20.54152344 4.17011719 19.78226562 4.08632813 19 4 C19 3.67 19 3.34 19 3 C22.63 2.67 26.26 2.34 30 2 C20.43 1.67 10.86 1.34 1 1 C1 1.66 1 2.32 1 3 C2.98 3.495 2.98 3.495 5 4 C3.35 4 1.7 4 0 4 C0 2.68 0 1.36 0 0 Z " fill="#355C97" transform="translate(484,617)"/>
<path d="M0 0 C0.66 0.99 1.32 1.98 2 3 C3.32 3 4.64 3 6 3 C4.23536928 9.10737442 2.30442525 15.07433507 0 21 C-1.14721836 17.21337716 -0.5429649 15.63050564 1 12 C1 10.68 1 9.36 1 8 C0.01 9.485 0.01 9.485 -1 11 C-1.66 11 -2.32 11 -3 11 C-2.01 7.37 -1.02 3.74 0 0 Z " fill="#466BA6" transform="translate(580,660)"/>
<path d="M0 0 C0.66 0 1.32 0 2 0 C2.40347796 3.42956264 1.95689093 5.08966687 0.4375 8.25 C-2 11 -2 11 -5.75 11.875 C-6.8225 11.91625 -7.895 11.9575 -9 12 C-9 12.99 -9 13.98 -9 15 C-1.41 15 6.18 15 14 15 C14 15.33 14 15.66 14 16 C6.08 16 -1.84 16 -10 16 C-10 14.35 -10 12.7 -10 11 C-9.0925 10.855625 -8.185 10.71125 -7.25 10.5625 C-2.95098597 8.49566633 -2.33454779 6.20367195 -0.6640625 1.8984375 C-0.44492187 1.27195312 -0.22578125 0.64546875 0 0 Z " fill="#6385B8" transform="translate(421,670)"/>
<path d="M0 0 C0 0.66 0 1.32 0 2 C-1.43359375 2.97265625 -1.43359375 2.97265625 -3.4375 4.0625 C-9.62679382 7.75628814 -14.24187541 13.06571782 -19.140625 18.27734375 C-21 20 -21 20 -23 20 C-19.91081929 12.69830014 -8.49635033 0 0 0 Z " fill="#436BA8" transform="translate(331,447)"/>
<path d="M0 0 C0.99 0.495 0.99 0.495 2 1 C3.81900903 6.76019526 4.18063817 12.23286124 4.1875 18.25 C4.1887085 19.27782593 4.1887085 19.27782593 4.18994141 20.32641602 C4.14960657 24.00091978 3.8656552 27.42657533 3 31 C2.67 31 2.34 31 2 31 C1.93941406 29.76765625 1.87882812 28.5353125 1.81640625 27.265625 C1.35895998 18.16179996 0.85157386 9.07741492 0 0 Z " fill="#5479B2" transform="translate(412,479)"/>
<path d="M0 0 C3 1 3 1 4.60546875 3.65234375 C5.12753906 4.73644531 5.64960937 5.82054687 6.1875 6.9375 C6.71730469 8.01902344 7.24710938 9.10054687 7.79296875 10.21484375 C9 13 9 13 9 15 C9.66 15 10.32 15 11 15 C11.84069415 16.60032137 12.67231505 18.20541171 13.5 19.8125 C13.9640625 20.70582031 14.428125 21.59914063 14.90625 22.51953125 C16 25 16 25 16 28 C13.26631133 24.72399465 11.01606966 21.48383691 8.984375 17.734375 C8.45585938 16.76242187 7.92734375 15.79046875 7.3828125 14.7890625 C6.84398437 13.78617188 6.30515625 12.78328125 5.75 11.75 C5.19570313 10.73164062 4.64140625 9.71328125 4.0703125 8.6640625 C0 1.14501232 0 1.14501232 0 0 Z " fill="#466BA3" transform="translate(818,628)"/>
<path d="M0 0 C0.66 0.33 1.32 0.66 2 1 C-0.11905463 3.17277714 -2.24472878 5.33826908 -4.375 7.5 C-4.97828125 8.12003906 -5.5815625 8.74007813 -6.203125 9.37890625 C-6.78320312 9.96542969 -7.36328125 10.55195313 -7.9609375 11.15625 C-8.49509277 11.70087891 -9.02924805 12.24550781 -9.57958984 12.80664062 C-11 14 -11 14 -13 14 C-13.66 15.65 -14.32 17.3 -15 19 C-15.99 19 -16.98 19 -18 19 C-12.75083507 11.9638853 -7.33407452 4.98717067 0 0 Z " fill="#EAF5FB" transform="translate(334,462)"/>
<path d="M0 0 C0.33 0.99 0.66 1.98 1 3 C0.06414063 4.51787109 0.06414063 4.51787109 -0.890625 6.06640625 C-3.63374525 10.55289509 -3.6637666 14.78309428 -3.75 19.9375 C-3.77964844 20.81212891 -3.80929687 21.68675781 -3.83984375 22.58789062 C-3.90990566 24.72477877 -3.95729051 26.86239023 -4 29 C-4.33 29 -4.66 29 -5 29 C-5.05849554 25.79174438 -5.09376162 22.58362767 -5.125 19.375 C-5.15013672 18.01955078 -5.15013672 18.01955078 -5.17578125 16.63671875 C-5.21201643 11.67249848 -4.96444146 7.65588093 -3 3 C-3.66 2.67 -4.32 2.34 -5 2 C-3.35 1.34 -1.7 0.68 0 0 Z " fill="#3A65A8" transform="translate(848,648)"/>
<path d="M0 0 C0.66 0 1.32 0 2 0 C5.0591905 4.97118456 5.79973229 9.28762648 5 15 C3.98046875 17.2734375 3.98046875 17.2734375 3 19 C2.67 19 2.34 19 2 19 C2.02320313 18.04738281 2.04640625 17.09476563 2.0703125 16.11328125 C2.08835937 14.85902344 2.10640625 13.60476563 2.125 12.3125 C2.14820313 11.07113281 2.17140625 9.82976563 2.1953125 8.55078125 C2.01032021 5.18762143 1.45767895 3.0014413 0 0 Z " fill="#5476AB" transform="translate(531,624)"/>
<path d="M0 0 C4.95 0.33 9.9 0.66 15 1 C15 1.33 15 1.66 15 2 C12.69 2 10.38 2 8 2 C7.67 2.99 7.34 3.98 7 5 C4.69 4.67 2.38 4.34 0 4 C0 2.68 0 1.36 0 0 Z " fill="#436CAD" transform="translate(680,617)"/>
<path d="M0 0 C0.66 0 1.32 0 2 0 C1.67 0.99 1.34 1.98 1 3 C0.84970012 5.06362991 0.75155552 7.13123915 0.68359375 9.19921875 C0.64169922 10.40771484 0.59980469 11.61621094 0.55664062 12.86132812 C0.51732422 14.12396484 0.47800781 15.38660156 0.4375 16.6875 C0.39431641 17.96173828 0.35113281 19.23597656 0.30664062 20.54882812 C0.2004514 23.69910852 0.09840467 26.84946839 0 30 C-0.33 30 -0.66 30 -1 30 C-1.02465746 25.8882744 -1.04283959 21.77657722 -1.05493164 17.66479492 C-1.0599708 16.26504772 -1.06680216 14.8653058 -1.07543945 13.46557617 C-1.0875232 11.45754223 -1.09269807 9.44947043 -1.09765625 7.44140625 C-1.10289307 6.23170166 -1.10812988 5.02199707 -1.11352539 3.77563477 C-1 1 -1 1 0 0 Z " fill="#F1FBFD" transform="translate(629,622)"/>
<path d="M0 0 C3.67530688 3.74579221 3.7377075 7.77339676 4.1875 12.75 C4.26935547 13.54277344 4.35121094 14.33554687 4.43554688 15.15234375 C4.63505003 17.10043334 4.81905938 19.05009871 5 21 C0.64162104 14.46243156 0.47008135 7.64500719 0 0 Z " fill="#486DA8" transform="translate(154,520)"/>
<path d="M0 0 C0.99 0.495 0.99 0.495 2 1 C1.67 7.93 1.34 14.86 1 22 C3.475 22.99 3.475 22.99 6 24 C4.125 24.625 4.125 24.625 2 25 C0 23 0 23 -0.22705078 20.66162109 C-0.21657715 19.70852051 -0.20610352 18.75541992 -0.1953125 17.7734375 C-0.18886719 16.7421875 -0.18242187 15.7109375 -0.17578125 14.6484375 C-0.15902344 13.56820312 -0.14226562 12.48796875 -0.125 11.375 C-0.11597656 10.28703125 -0.10695313 9.1990625 -0.09765625 8.078125 C-0.07403409 5.38519848 -0.04109556 2.69270745 0 0 Z " fill="#E2F2FB" transform="translate(503,656)"/>
<path d="M0 0 C1.10844919 3.32534757 0.84454356 5.62182575 0 9 C-0.66 9 -1.32 9 -2 9 C-1.938125 10.1446875 -1.938125 10.1446875 -1.875 11.3125 C-2 14 -2 14 -4 17 C-4.66 17 -5.32 17 -6 17 C-4.33846988 11.14340094 -2.52958084 5.5409866 0 0 Z " fill="#4B70A7" transform="translate(439,623)"/>
<path d="M0 0 C3.4375 0.4375 3.4375 0.4375 5.375 1.9375 C5.725625 2.4325 6.07625 2.9275 6.4375 3.4375 C6.1075 4.4275 5.7775 5.4175 5.4375 6.4375 C4.7775 5.4475 4.1175 4.4575 3.4375 3.4375 C1.02867313 2.43906224 1.02867313 2.43906224 -1.5625 2.4375 C-3.3979799 3.77128575 -3.3979799 3.77128575 -4.5625 5.4375 C-5.5525 5.1075 -6.5425 4.7775 -7.5625 4.4375 C-5.11203627 1.30090643 -4.03256326 0.49522707 0 0 Z " fill="#466CA4" transform="translate(306.5625,299.5625)"/>
<path d="M0 0 C2.64 0 5.28 0 8 0 C11 5.625 11 5.625 11 9 C10.34 9 9.68 9 9 9 C8.34 7.02 7.68 5.04 7 3 C4.69 2.67 2.38 2.34 0 2 C0 1.34 0 0.68 0 0 Z " fill="#5E7FB1" transform="translate(777,616)"/>
<path d="M0 0 C7.92 0 15.84 0 24 0 C24 0.33 24 0.66 24 1 C23.34926514 1.02505615 22.69853027 1.0501123 22.02807617 1.07592773 C19.08101954 1.19193702 16.1342787 1.31464115 13.1875 1.4375 C11.65125977 1.49647461 11.65125977 1.49647461 10.08398438 1.55664062 C9.10107422 1.59853516 8.11816406 1.64042969 7.10546875 1.68359375 C6.19949951 1.72025146 5.29353027 1.75690918 4.36010742 1.79467773 C1.84951218 1.9208205 1.84951218 1.9208205 -1 3 C-0.67 2.01 -0.34 1.02 0 0 Z " fill="#EAF9FE" transform="translate(766,663)"/>
<path d="M0 0 C3.35250701 0.57575664 4.93818629 1.59306263 7.25 4.0625 C8.03117187 4.88427734 8.03117187 4.88427734 8.828125 5.72265625 C9.21484375 6.14417969 9.6015625 6.56570313 10 7 C9.67 7.99 9.34 8.98 9 10 C7.49702124 8.52386015 5.99768715 7.04400843 4.5 5.5625 C3.6646875 4.73878906 2.829375 3.91507813 1.96875 3.06640625 C0 1 0 1 0 0 Z " fill="#D7E6F3" transform="translate(282,576)"/>
<path d="M0 0 C1.24284687 2.93763806 1.01320986 3.96662773 -0.1875 7 C-1.88635609 9.81189974 -3.56575933 11.81757733 -6 14 C-6.66 13.67 -7.32 13.34 -8 13 C-7.25943359 11.96939453 -7.25943359 11.96939453 -6.50390625 10.91796875 C-5.86324219 10.01691406 -5.22257812 9.11585938 -4.5625 8.1875 C-3.92441406 7.29417969 -3.28632813 6.40085937 -2.62890625 5.48046875 C-0.86709732 3.02865666 -0.86709732 3.02865666 0 0 Z " fill="#496FA9" transform="translate(396,513)"/>
<path d="M0 0 C1.25127906 3.54667178 0.72285053 5.72253438 -0.4375 9.25 C-0.72496094 10.14203125 -1.01242187 11.0340625 -1.30859375 11.953125 C-1.53675781 12.62859375 -1.76492188 13.3040625 -2 14 C-3.1171875 12.328125 -3.1171875 12.328125 -4 10 C-3.3203125 7.421875 -3.3203125 7.421875 -2.125 4.75 C-1.73570312 3.85796875 -1.34640625 2.9659375 -0.9453125 2.046875 C-0.63335938 1.37140625 -0.32140625 0.6959375 0 0 Z " fill="#496EA6" transform="translate(591,630)"/>
<path d="M0 0 C0 0.33 0 0.66 0 1 C-1.7634375 1.061875 -1.7634375 1.061875 -3.5625 1.125 C-8.67389492 1.71722936 -11.50123478 4.42469929 -15 8 C-14.1342843 5.33070993 -13.27808762 3.32258164 -11.4375 1.1875 C-7.71521629 -0.62592027 -4.06856367 -0.23472483 0 0 Z " fill="#D2E4F6" transform="translate(390,621)"/>
<path d="M0 0 C0 3.96130371 -1.34877125 4.82914401 -4 7.6875 C-4.7425 8.49574219 -5.485 9.30398438 -6.25 10.13671875 C-6.8275 10.75160156 -7.405 11.36648438 -8 12 C-8.66 11.67 -9.32 11.34 -10 11 C-8.52116808 9.35386588 -7.04192523 7.70810092 -5.5625 6.0625 C-4.73878906 5.14597656 -3.91507813 4.22945313 -3.06640625 3.28515625 C-1 1 -1 1 0 0 Z " fill="#456BA4" transform="translate(216,453)"/>
<path d="M0 0 C1.2065625 0.0309375 1.2065625 0.0309375 2.4375 0.0625 C0.859375 2.078125 0.859375 2.078125 -1.5625 4.0625 C-4.796875 4.234375 -4.796875 4.234375 -8.3125 3.8125 C-9.48296875 3.68359375 -10.6534375 3.5546875 -11.859375 3.421875 C-12.75140625 3.30328125 -13.6434375 3.1846875 -14.5625 3.0625 C-14.5625 2.7325 -14.5625 2.4025 -14.5625 2.0625 C-13.78003906 2.00191406 -12.99757813 1.94132813 -12.19140625 1.87890625 C-11.17949219 1.79511719 -10.16757812 1.71132813 -9.125 1.625 C-8.11566406 1.54378906 -7.10632813 1.46257813 -6.06640625 1.37890625 C-3.14883217 1.01022684 -2.96221017 0.07224903 0 0 Z " fill="#3561A6" transform="translate(517.5625,617.9375)"/>
<path d="M0 0 C-0.33 1.32 -0.66 2.64 -1 4 C-1 3.34 -1 2.68 -1 2 C-3.99332739 2.9977758 -4.94766315 3.7522025 -7 6 C-7 4.68 -7 3.36 -7 2 C-4 0 -4 0 0 0 Z " fill="#4F73AB" transform="translate(372,666)"/>
<path d="M0 0 C0.99 0.33 1.98 0.66 3 1 C2.01 3.97 1.02 6.94 0 10 C-0.66 9.67 -1.32 9.34 -2 9 C-1.34 6.03 -0.68 3.06 0 0 Z " fill="#4267A3" transform="translate(437,639)"/>
<path d="M0 0 C4.43458973 1.3937282 6.87378374 3.60582235 10 7 C6.433255 7 5.89456323 6.36308045 3.3125 4.0625 C2.68988281 3.51722656 2.06726563 2.97195313 1.42578125 2.41015625 C0.95527344 1.94480469 0.48476563 1.47945313 0 1 C0 0.67 0 0.34 0 0 Z " fill="#4F72AB" transform="translate(380,461)"/>
<path d="M0 0 C3.76607955 1.25535985 4.26441793 2.52883585 6 6 C6 6.99 6 7.98 6 9 C2.91910327 6.22719294 1.31224548 3.93673644 0 0 Z " fill="#476DA4" transform="translate(618,672)"/>
<path d="M0 0 C0.6875 1.625 0.6875 1.625 1 4 C-0.4375 7.25 -0.4375 7.25 -2 10 C-2.6875 8.375 -2.6875 8.375 -3 6 C-1.5625 2.75 -1.5625 2.75 0 0 Z " fill="#436AA3" transform="translate(774,624)"/>
<path d="M0 0 C0.99 0.33 1.98 0.66 3 1 C3 4.63 3 8.26 3 12 C2.67 12 2.34 12 2 12 C1.34 8.04 0.68 4.08 0 0 Z " fill="#F1FAFE" transform="translate(685,622)"/>
</svg>
