<?xml version="1.0" encoding="UTF-8"?>
<svg version="1.1" xmlns="http://www.w3.org/2000/svg" viewBox="70 50 340 440" width="100%" height="100%">
<path d="M0 0 C0.55800293 0.43634766 1.11600586 0.87269531 1.69091797 1.32226562 C6.13911438 4.9155498 9.18561046 8.67659723 12.125 13.5625 C12.55167969 14.26068848 12.97835937 14.95887695 13.41796875 15.67822266 C24.50312601 34.30179535 24.78923275 51.97651524 23 73 C23.68964844 73.4125 24.37929688 73.825 25.08984375 74.25 C40.13287851 83.4945536 49.69761932 94.33464436 56 111 C59.37648488 126.5196263 56.45802237 142.63761105 48 156 C41.37418912 165.33636987 34.25114293 173.21689004 25 180 C23.61281052 181.21539337 22.23728174 182.44425258 20.875 183.6875 C11.49483945 192 11.49483945 192 7 192 C7 192.66 7 193.32 7 194 C5.15283932 195.49952916 3.24537846 196.92521087 1.3125 198.3125 C-2.82727006 201.28969727 -6.47696005 204.31200166 -10 208 C-11.22783218 209.27212272 -12.45683507 210.54311752 -13.6875 211.8125 C-14.26886719 212.41707031 -14.85023438 213.02164063 -15.44921875 213.64453125 C-17 215 -17 215 -19 215 C-19 215.66 -19 216.32 -19 217 C-20.6222454 218.70993434 -22.29413425 220.37347684 -24 222 C-24.45375 222.5775 -24.9075 223.155 -25.375 223.75 C-28.10444301 225.84957155 -30.62803101 225.88372521 -34 226 C-37.51483319 224.67217413 -38.66997674 223.59129168 -40.5 220.3125 C-41.18240229 215.79158483 -40.29893562 212.91811951 -38 209 C-36.39079697 207.1094967 -34.69079353 205.44557417 -32.86328125 203.765625 C-31.0310868 202.02945751 -29.51601814 200.21615424 -27.9375 198.25 C-23.24592434 192.79933794 -17.43658613 188.69601704 -11.74707031 184.35498047 C-9.15250025 182.34270212 -6.64257772 180.23233177 -4.125 178.125 C-1.21490667 175.72248109 1.61663361 173.52571373 4.875 171.625 C14.324662 165.96301244 22.64252398 158.64345683 28 149 C28.85614535 147.58346861 29.71443426 146.16823176 30.57421875 144.75390625 C31.51015637 143.17065407 32.44372505 141.58599926 33.375 140 C33.8289917 139.25226318 34.2829834 138.50452637 34.75073242 137.73413086 C38.52743179 131.10444048 38.77959013 125.99883877 37.3359375 118.59375 C33.85797184 107.39639714 28.64024766 97.82005923 18.08227539 91.93017578 C12.33019693 89.08856689 7.43237361 88.36288183 1.0625 88.5 C0.18803223 88.50773437 -0.68643555 88.51546875 -1.58740234 88.5234375 C-8.10684917 88.69842358 -13.20166917 89.97947417 -19 93 C-19.66 93 -20.32 93 -21 93 C-21.38671875 93.88945312 -21.38671875 93.88945312 -21.78125 94.796875 C-23.09769895 97.17660965 -24.42580782 98.50978792 -26.5 100.25 C-27.1084375 100.77078125 -27.716875 101.2915625 -28.34375 101.828125 C-30 103 -30 103 -32 103 C-32.33 103.99 -32.66 104.98 -33 106 C-33.66 106 -34.32 106 -35 106 C-35.26296875 106.71671875 -35.5259375 107.4334375 -35.796875 108.171875 C-37.04357003 111.10241786 -38.48797545 113.59902612 -40.25 116.25 C-40.81203125 117.12140625 -41.3740625 117.9928125 -41.953125 118.890625 C-44.57536308 121.59293142 -46.29269538 121.80875016 -50 122 C-54.86217011 120.68316226 -56.68334643 118.2738569 -59.1875 114.125 C-60.13319343 112.4211887 -61.07070824 110.71281226 -62 109 C-67.13600783 99.66438356 -76.9724442 92.46594986 -87 89 C-96.46618987 87.4244194 -107.02892111 87.22342928 -115.8125 91.625 C-119.17193663 94.12810965 -121.68172798 96.7709898 -124.32421875 100 C-126 102 -126 102 -128.03515625 103.921875 C-132.36458516 108.50091313 -134.68961237 114.63329433 -135.5 120.8125 C-134.29421248 136.68327092 -128.96076585 147.76244713 -118 159 C-117.33742188 159.71285156 -116.67484375 160.42570313 -115.9921875 161.16015625 C-111.94282521 165.41444578 -107.67835686 168.75579705 -102.8203125 172.0390625 C-77.21551233 189.841846 -49.2684956 211.81880574 -41 243 C-40.81526123 243.69053467 -40.63052246 244.38106934 -40.44018555 245.0925293 C-39.02063015 250.82687723 -38.65043059 256.2918287 -38.6875 262.1875 C-38.69168945 263.10587646 -38.69587891 264.02425293 -38.70019531 264.97045898 C-38.82680077 272.65904709 -39.8627116 279.58888309 -42 287 C-42.26683594 288.02222656 -42.53367187 289.04445313 -42.80859375 290.09765625 C-47.41234296 305.95501466 -59.91153508 321.21785775 -74.21484375 329.51171875 C-75.13394531 330.00285156 -76.05304688 330.49398438 -77 331 C-77.99128906 331.54269531 -78.98257813 332.08539063 -80.00390625 332.64453125 C-96.81636593 341.46946219 -117.77691838 344.28727453 -136.4765625 340.19921875 C-140.16511697 339.05000103 -143.51885128 337.67301782 -147 336 C-147.93682617 335.58113525 -147.93682617 335.58113525 -148.89257812 335.15380859 C-168.18300124 326.40415541 -182.18121736 310.51273874 -190 291 C-193.31838101 282.00192151 -196.29593524 271.67631646 -195 262 C-192.07317073 256.53658537 -192.07317073 256.53658537 -189 255 C-184.81362741 254.52607103 -182.77297154 254.4145541 -179.359375 257 C-176.35054702 260.82579451 -176.05078351 263.64889792 -175.5625 268.375 C-173.77284866 281.4955483 -169.32879331 292.54146959 -161 303 C-160.3915625 303.83273437 -159.783125 304.66546875 -159.15625 305.5234375 C-151.00911931 314.88083035 -135.9862342 320.50743208 -124 322 C-106.69157874 322.77851686 -91.05732692 320.04897604 -77.4375 308.5 C-76.2671113 307.35796873 -75.1202509 306.19125272 -74 305 C-73.38898438 304.38511719 -72.77796875 303.77023437 -72.1484375 303.13671875 C-61.84406661 292.19654625 -57.35107871 277.63175249 -57.52758789 262.80810547 C-58.22603469 244.81596358 -65.8755675 230.59321498 -77.66601562 217.51025391 C-79.03011834 215.9659019 -80.33036596 214.38092238 -81.62890625 212.78125 C-83.51556795 210.56823001 -85.02120453 208.9994504 -87.375 207.375 C-92.25157999 203.87577467 -96.88940766 200.09979998 -101.54443359 196.31396484 C-104.32660996 194.06802409 -107.08100986 191.94616564 -110.0625 189.96484375 C-113.37925028 187.74632594 -116.35621236 185.28851706 -119.375 182.6875 C-120.22916504 181.95575562 -120.22916504 181.95575562 -121.10058594 181.20922852 C-122.22869911 180.24174815 -123.35569234 179.27296004 -124.48144531 178.30273438 C-125.74680017 177.21721452 -127.02428315 176.14585202 -128.3046875 175.078125 C-141.86065028 163.6453853 -151.7337404 150.01204243 -154 132 C-154.96729525 116.80230354 -152.22145168 101.94242816 -142.625 89.6875 C-136.34881061 83.26187753 -129.89450677 78.30835858 -122 74 C-120.99066406 73.39285156 -120.99066406 73.39285156 -119.9609375 72.7734375 C-108.07571246 66.39488043 -90.90122787 68.33963302 -78.5234375 72.0390625 C-71.8006737 74.43453006 -66.33975709 77.28409572 -61 82 C-60.15308594 82.73992187 -59.30617187 83.47984375 -58.43359375 84.2421875 C-54.51114837 87.72499926 -50.68414184 91.26515896 -47 95 C-46.72671875 94.41605469 -46.4534375 93.83210938 -46.171875 93.23046875 C-40.47498454 82.38738723 -27.5868455 74.37425617 -16.15234375 70.57421875 C-9.18538958 69.30514531 -2.0478552 69.72087702 5 70 C5.21741087 42.26486779 5.21741087 42.26486779 -8.1875 18.84765625 C-10 17 -10 17 -10 15 C-10.84498047 14.60941406 -10.84498047 14.60941406 -11.70703125 14.2109375 C-14.22533574 12.88099816 -16.39605062 11.31499004 -18.6875 9.625 C-32.21582218 0.07559611 -46.69940955 -0.58901072 -62.78515625 2.1796875 C-71.31580754 4.3564029 -77.81563013 7.94349656 -83 15 C-84.28064672 16.01407433 -85.57354409 17.01277394 -86.875 18 C-97.54382987 27.15623584 -100.45145793 42.68253817 -102 56 C-107.61231586 58.34696845 -112.86416876 59.94629469 -119 60 C-120 59 -120 59 -120.1875 55.3125 C-119.84986248 33.94004473 -112.96728822 16.25115059 -98 1 C-97.39671875 0.37222656 -96.7934375 -0.25554687 -96.171875 -0.90234375 C-69.57842446 -26.39736916 -26.88371193 -22.12305461 0 0 Z " fill="#3D6DB5" transform="translate(302,155)"/>
<path d="M0 0 C2.76142665 1.01736771 3.68085371 1.36170741 5 4 C5.50323956 9.73693099 4.72385351 13.35168475 2.21875 18.49609375 C0.80809468 21.39426701 -0.44450524 24.3387073 -1.6875 27.3125 C-2.31205078 28.79169922 -2.31205078 28.79169922 -2.94921875 30.30078125 C-6.67830583 39.87996033 -6.76333189 53.93504649 -3.16015625 63.5546875 C1.37142967 73.10611102 6.32797559 80.9758856 13.703125 88.59765625 C16 91 16 91 18.01171875 93.5625 C24.67188601 101.72742018 34.6047542 107.73899095 43.09790039 113.86303711 C47.682667 117.19200325 52.01253213 120.67184768 56.23803711 124.44628906 C58.39157111 126.34529008 60.64910629 128.07957963 62.9375 129.8125 C74.07992112 138.72986007 82.56726355 149.64685493 85 164 C85.43007888 169.07493078 85.05457683 171.88806965 82 176 C80 178 80 178 76.6875 178.4375 C73 178 73 178 70.3125 176.25 C67.54942365 172.36675756 66.47612104 168.66677534 65.09375 164.140625 C62.62212466 157.04352937 58.63911277 150.96778982 53 146 C52.44957031 145.49339844 51.89914063 144.98679687 51.33203125 144.46484375 C46.43899973 140.03589357 41.2223436 136.10307196 35.92578125 132.171875 C29.06366124 127.07796482 22.39997774 121.74117509 15.75 116.375 C14.72084473 115.54887207 14.72084473 115.54887207 13.67089844 114.70605469 C9.89522169 111.64604114 6.39896136 108.48295546 3 105 C2.08863281 104.16984375 1.17726562 103.3396875 0.23828125 102.484375 C-12.33766226 90.88238364 -22.62524657 74.84268678 -23.91015625 57.38671875 C-23.93980469 56.59910156 -23.96945313 55.81148438 -24 55 C-24.05994141 53.55560547 -24.05994141 53.55560547 -24.12109375 52.08203125 C-24.48730941 34.3959689 -21.43026369 17.6160932 -11 3 C-7.35931829 -0.31358921 -4.90495596 -0.4379425 0 0 Z " fill="#3E6CB4" transform="translate(132,250)"/>
<path d="M0 0 C1.21816406 0.02707031 1.21816406 0.02707031 2.4609375 0.0546875 C6.5239848 0.28416193 8.61902134 0.74342254 12.0625 3.0625 C14.22625835 6.34303686 14.55870097 8.11568008 14.56640625 11.9375 C13.71720183 15.02977542 12.22660791 16.71132314 10 19 C7.14672852 19.64697266 7.14672852 19.64697266 3.87890625 19.6640625 C2.69619141 19.67050781 1.51347656 19.67695313 0.29492188 19.68359375 C-0.93677734 19.66425781 -2.16847656 19.64492187 -3.4375 19.625 C-5.27924805 19.65400391 -5.27924805 19.65400391 -7.15820312 19.68359375 C-17.16881209 19.62909942 -17.16881209 19.62909942 -20.3125 16.6796875 C-22.54889613 13.12837327 -22.66322153 11.12671176 -22 7 C-19.94435021 3.14565665 -18.4980298 2.18032113 -14.375 0.6875 C-9.57808248 -0.25586411 -4.86617023 -0.22598314 0 0 Z " fill="#4572B6" transform="translate(159,199)"/>
<path d="M0 0 C3.91137314 3.37123114 6.52974958 7.0995467 9.1875 11.5 C9.86167969 12.6034375 10.53585938 13.706875 11.23046875 14.84375 C14.32256792 20.3590174 15.71912066 23.69655757 14 30 C11.875 32.5 11.875 32.5 9 34 C3.58638578 34 0.87914289 32.64992081 -3 29 C-4.78810022 26.50221191 -6.27393313 23.87871283 -7.75 21.1875 C-8.14832031 20.50107422 -8.54664063 19.81464844 -8.95703125 19.10742188 C-11.39145658 14.74608701 -12.68988481 11.07576285 -13 6 C-12.21395017 3.35601422 -11.51393337 2.38069139 -9.3125 0.75 C-5.97306183 -0.33306103 -3.49126017 -0.42875125 0 0 Z " fill="#436DB2" transform="translate(203,107)"/>
<path d="M0 0 C4.69656877 0.9031863 8.20585959 3.14424933 12.25 5.625 C13.58417969 6.3984375 13.58417969 6.3984375 14.9453125 7.1875 C23.3182079 12.06965475 23.3182079 12.06965475 25.25 14.625 C25.6484375 17 25.6484375 17 25.625 19.625 C25.63660156 20.924375 25.63660156 20.924375 25.6484375 22.25 C25.25 24.625 25.25 24.625 24.01953125 26.38671875 C20.96606999 28.52346758 18.29758368 28.45226072 14.64453125 28.37890625 C6.92571871 26.66460151 -1.30417696 21.32787032 -6.6875 15.54296875 C-8.46358331 12.33687718 -8.48442057 9.12389045 -7.75 5.625 C-5.40716977 2.31747496 -3.96935574 0.9021263 0 0 Z " fill="#3A69B2" transform="translate(159.75,145.375)"/>
<path d="M0 0 C2.5625 1.4375 2.5625 1.4375 4 4 C5.1650544 11.2130848 2.92085287 16.26383216 -0.6875 22.375 C-1.34008789 23.56416016 -1.34008789 23.56416016 -2.00585938 24.77734375 C-4.3927183 28.95699894 -6.29907148 32.23901725 -11 34 C-13.38671875 33.9609375 -13.38671875 33.9609375 -15.6875 33.375 C-16.45449219 33.19710937 -17.22148437 33.01921875 -18.01171875 32.8359375 C-20 32 -20 32 -22 29 C-23.58972921 19.63826134 -17.69311774 11.29901388 -12.890625 3.6328125 C-9.54590551 -1.0249167 -5.37368724 -0.64904215 0 0 Z " fill="#426DB1" transform="translate(312,107)"/>
<path d="M0 0 C2.625 1.5625 2.625 1.5625 4 4 C4.5625 7.4375 4.5625 7.4375 4 11 C2.35758851 13.20876028 1.14845762 14.36220362 -1 16 C-1.85980469 16.66515625 -2.71960938 17.3303125 -3.60546875 18.015625 C-14.5927978 26.25982871 -14.5927978 26.25982871 -22.125 26.375 C-22.97320312 26.40335938 -23.82140625 26.43171875 -24.6953125 26.4609375 C-27 26 -27 26 -28.76171875 24.21484375 C-30.26637978 21.52354153 -30.73260754 19.16182292 -30.58984375 16.078125 C-29.33978817 11.67395566 -25.6208602 9.48446715 -22 7 C-21.05898438 6.34257812 -20.11796875 5.68515625 -19.1484375 5.0078125 C-12.90535651 0.99094644 -7.50163366 -1.7550992 0 0 Z " fill="#406DB2" transform="translate(352,147)"/>
<path d="M0 0 C1.14984375 -0.02900391 2.2996875 -0.05800781 3.484375 -0.08789062 C4.59039062 -0.09626953 5.69640625 -0.10464844 6.8359375 -0.11328125 C8.35646729 -0.13515503 8.35646729 -0.13515503 9.90771484 -0.1574707 C13.33754042 0.43573812 14.48202955 1.62998844 16.625 4.3125 C17.68985917 7.32165427 17.98674723 10.13845978 17.625 13.3125 C14.87212137 16.28858501 12.24811825 18.19564193 8.16650391 18.48950195 C4.86090458 18.55559287 1.55615003 18.59738739 -1.75 18.625 C-3.47476562 18.66850586 -3.47476562 18.66850586 -5.234375 18.71289062 C-6.34039062 18.72126953 -7.44640625 18.72964844 -8.5859375 18.73828125 C-9.59962402 18.75286377 -10.61331055 18.76744629 -11.65771484 18.7824707 C-15.08282592 18.19007728 -16.2263016 16.98197251 -18.375 14.3125 C-19.44771131 11.62805328 -19.72818554 9.18355668 -19.375 6.3125 C-13.77281367 -0.80379074 -8.45428568 0.07060929 0 0 Z " fill="#406FB4" transform="translate(352.375,199.6875)"/>
<path d="M0 0 C2.30275556 1.8670991 3.67823871 3.35647741 5 6 C5.32399495 10.07659468 5.32453245 14.16212883 5.375 18.25 C5.41238281 19.38308594 5.44976562 20.51617187 5.48828125 21.68359375 C5.58726004 31.06458376 5.58726004 31.06458376 2.69921875 34.7578125 C0 37 0 37 -3.5625 37.625 C-7.45111572 36.91797896 -8.63470046 36.09308401 -11 33 C-13.09955726 28.80088549 -12.22936921 23.30106096 -12.25 18.6875 C-12.270625 17.54603516 -12.29125 16.40457031 -12.3125 15.22851562 C-12.32023438 13.57432617 -12.32023438 13.57432617 -12.328125 11.88671875 C-12.34214355 10.37404419 -12.34214355 10.37404419 -12.35644531 8.83081055 C-11.93868495 5.51304935 -11.01480857 3.65247719 -9 1 C-5.68377419 -0.1054086 -3.47482175 -0.35457365 0 0 Z " fill="#4571B5" transform="translate(257,92)"/>
<path d="M0 0 C1.60781893 0.7631861 3.21113138 1.53587058 4.8125 2.3125 C5.70582031 2.74175781 6.59914062 3.17101562 7.51953125 3.61328125 C9.86989747 4.92726552 11.41950404 5.83260978 13 8 C13.3984375 10.375 13.3984375 10.375 13.375 13 C13.38273437 13.86625 13.39046875 14.7325 13.3984375 15.625 C13 18 13 18 11.76953125 19.76171875 C8.71846003 21.89679508 6.05255517 21.82740044 2.40234375 21.75390625 C-2.17137761 20.74044101 -5.67425093 18.71353292 -9.625 16.25 C-10.33615967 15.80760986 -11.04731934 15.36521973 -11.7800293 14.90942383 C-16.81402188 11.57361613 -16.81402188 11.57361613 -17.70068359 8.83886719 C-17.79945801 8.23204102 -17.89823242 7.62521484 -18 7 C-17.484375 7.28875 -16.96875 7.5775 -16.4375 7.875 C-13.37643275 9.28780027 -10.25055082 10.1248517 -7 11 C-7 12.32 -7 13.64 -7 15 C-1.69600665 17.15026758 2.22390888 18.10898285 8 18 C8 16.35 8 14.7 8 13 C8.66 13 9.32 13 10 13 C10 12.34 10 11.68 10 11 C9.01 11.33 8.02 11.66 7 12 C7 9.69 7 7.38 7 5 C6.21625 4.9175 5.4325 4.835 4.625 4.75 C2 4 2 4 0.8359375 1.953125 C0.56007812 1.30859375 0.28421875 0.6640625 0 0 Z " fill="#6B8BB6" transform="translate(172,152)"/>
<path d="M0 0 C2.76142665 1.01736771 3.68085371 1.36170741 5 4 C5.2430836 8.94269981 5.25495121 12.49009758 3 17 C2.34 16.67 1.68 16.34 1 16 C1.16371094 15.43796875 1.32742187 14.8759375 1.49609375 14.296875 C2.02864997 11.86940944 2.09898681 9.73110319 2.0625 7.25 C2.05347656 6.45078125 2.04445312 5.6515625 2.03515625 4.828125 C2.02355469 4.22484375 2.01195312 3.6215625 2 3 C-0.64 3.33 -3.28 3.66 -6 4 C-6.20625 4.886875 -6.4125 5.77375 -6.625 6.6875 C-8.77953659 11.87797451 -12.88525324 14.83606868 -18 17 C-15.53201085 7.37484232 -10.58675302 -0.74293004 0 0 Z " fill="#4B75AC" transform="translate(132,250)"/>
<path d="M0 0 C1.75390625 1.54296875 1.75390625 1.54296875 3 3 C-0.42882941 4.14294314 -3.24082838 4.20964472 -6.85546875 4.31640625 C-7.84792351 4.3475779 -7.84792351 4.3475779 -8.86042786 4.37937927 C-10.96934852 4.44464727 -13.07839135 4.50365344 -15.1875 4.5625 C-16.61915315 4.60570689 -18.05079404 4.64932188 -19.48242188 4.69335938 C-22.98815154 4.80030506 -26.49401786 4.90163641 -30 5 C-27.54744116 1.30991147 -25.71979778 0.22234368 -21.3046875 -0.69140625 C-14.59128809 -1.59031905 -6.5800196 -1.76274554 0 0 Z " fill="#5782B8" transform="translate(168,200)"/>
<path d="M0 0 C0.33 0.99 0.66 1.98 1 3 C-0.98 3.99 -2.96 4.98 -5 6 C-5 6.99 -5 7.98 -5 9 C-6.65 9.66 -8.3 10.32 -10 11 C-10 11.66 -10 12.32 -10 13 C-10.66 13 -11.32 13 -12 13 C-12.226875 13.556875 -12.45375 14.11375 -12.6875 14.6875 C-14.38617978 17.68041199 -16.42072687 19.73527237 -19 22 C-19.99 22 -20.98 22 -22 22 C-22 22.66 -22 23.32 -22 24 C-23.32 24.33 -24.64 24.66 -26 25 C-20.734175 13.71608929 -10.58477916 5.99872397 0 0 Z " fill="#4C73B0" transform="translate(219,145)"/>
<path d="M0 0 C0.53625 0.2475 1.0725 0.495 1.625 0.75 C-0.59434164 4.07901247 -1.72183329 4.50023244 -5.375 5.75 C-5.375 6.41 -5.375 7.07 -5.375 7.75 C-9.6306453 12.59670715 -9.6306453 12.59670715 -12.34765625 13.15625 C-15.12285657 13.96902543 -15.9188001 15.35082637 -17.5625 17.6875 C-18.07167969 18.39777344 -18.58085937 19.10804688 -19.10546875 19.83984375 C-20.41033324 21.71847609 -20.41033324 21.71847609 -21.375 23.75 C-22.365 23.42 -23.355 23.09 -24.375 22.75 C-20.30484169 15.33649737 -9.93876566 -1.04618586 0 0 Z " fill="#5C7FB4" transform="translate(178.375,231.25)"/>
<path d="M0 0 C-1.2824977 2.86095641 -2.45343989 5.11365918 -5 7 C-7.6875 7.1875 -7.6875 7.1875 -10 7 C-9.43416161 10.28186266 -8.58727596 11.89184922 -6 14 C-2.99994599 15.75935096 -0.69654782 16.28090201 2.765625 16.4140625 C3.65507812 16.45273438 4.54453125 16.49140625 5.4609375 16.53125 C6.38132812 16.5621875 7.30171875 16.593125 8.25 16.625 C9.18585938 16.66367188 10.12171875 16.70234375 11.0859375 16.7421875 C13.39043054 16.83624844 15.69492013 16.92189399 18 17 C18 17.33 18 17.66 18 18 C13.9169058 18.11614929 9.83423623 18.18723457 5.75 18.25 C4.59113281 18.28351563 3.43226563 18.31703125 2.23828125 18.3515625 C1.12324219 18.36445313 0.00820313 18.37734375 -1.140625 18.390625 C-2.16704102 18.41157227 -3.19345703 18.43251953 -4.25097656 18.45410156 C-7.70809326 17.88303255 -8.83933194 16.69417408 -11 14 C-12.07271131 11.31555328 -12.35318554 8.87105668 -12 6 C-8.29125687 1.28889386 -5.85834122 -0.15416687 0 0 Z " fill="#83A4D2" transform="translate(345,200)"/>
<path d="M0 0 C2.30275556 1.8670991 3.67823871 3.35647741 5 6 C5.084915 7.8863912 5.107193 9.77578515 5.09765625 11.6640625 C5.09443359 12.78554687 5.09121094 13.90703125 5.08789062 15.0625 C5.07951172 16.238125 5.07113281 17.41375 5.0625 18.625 C5.05798828 19.80835937 5.05347656 20.99171875 5.04882812 22.2109375 C5.03701467 25.14067507 5.02054258 28.07031272 5 31 C4.34 31 3.68 31 3 31 C2.67 22.42 2.34 13.84 2 5 C-1.96 5 -5.92 5 -10 5 C-9.67 3.68 -9.34 2.36 -9 1 C-5.68377419 -0.1054086 -3.47482175 -0.35457365 0 0 Z " fill="#527AB2" transform="translate(257,92)"/>
<path d="M0 0 C0.33 0 0.66 0 1 0 C1.55254284 13.64985467 -0.17695923 25.05293652 -7 37 C-7.33 36.34 -7.66 35.68 -8 35 C-7.34312796 33.66181416 -6.67391785 32.32968303 -6 31 C-5.43312849 28.80303387 -4.91564 26.5929688 -4.4375 24.375 C-3.09722222 18.19444444 -3.09722222 18.19444444 -2 16 C-2.66 16 -3.32 16 -4 16 C-4 12.7 -4 9.4 -4 6 C-3.01 5.67 -2.02 5.34 -1 5 C-0.67 3.35 -0.34 1.7 0 0 Z " fill="#4C73AE" transform="translate(358,272)"/>
<path d="M0 0 C4.66808071 5.16823222 7.94714417 10.77579461 8.0625 17.8125 C6.74729858 21.75810426 5.68712964 23.07628019 2 25 C-2.17955847 25 -4.22755042 24.65361118 -7.4375 21.9375 C-8.2109375 20.9784375 -8.2109375 20.9784375 -9 20 C-7.68 19.67 -6.36 19.34 -5 19 C-5 19.99 -5 20.98 -5 22 C-3.700625 21.855625 -2.40125 21.71125 -1.0625 21.5625 C-0.33160156 21.48128906 0.39929688 21.40007812 1.15234375 21.31640625 C3.01140229 21.18113386 3.01140229 21.18113386 4 20 C4.23376923 13.91531443 4.23376923 13.91531443 3 8 C2.34 8 1.68 8 1 8 C0.67 5.36 0.34 2.72 0 0 Z M-1 8 C-0.34 8 0.32 8 1 8 C0.67 8.99 0.34 9.98 0 11 C-0.33 10.01 -0.66 9.02 -1 8 Z " fill="#6584B3" transform="translate(210,116)"/>
<path d="M0 0 C-0.61277612 2.96175123 -1.25372522 4.38058783 -3 7 C-4.32 7 -5.64 7 -7 7 C-7.185625 7.928125 -7.37125 8.85625 -7.5625 9.8125 C-9.49695666 14.10194738 -11.76625445 14.26114022 -16 16 C-17.50452457 18.54368999 -17.50452457 18.54368999 -18 21 C-19.65 19.68 -21.3 18.36 -23 17 C-19.85269085 14.41513774 -16.70076586 11.83604445 -13.54443359 9.26220703 C-12.06415991 8.05243546 -10.58860922 6.83689177 -9.11328125 5.62109375 C-7.78876953 4.54021484 -7.78876953 4.54021484 -6.4375 3.4375 C-5.22900391 2.44556641 -5.22900391 2.44556641 -3.99609375 1.43359375 C-2 0 -2 0 0 0 Z " fill="#4F74B4" transform="translate(305,329)"/>
<path d="M0 0 C13.15562886 0.24403359 25.19516776 3.28226269 36 11 C35.34 11.66 34.68 12.32 34 13 C33.505 12.01 33.505 12.01 33 11 C30.42048126 10.30906104 30.42048126 10.30906104 27.4375 9.875 C26.42558594 9.70742187 25.41367187 9.53984375 24.37109375 9.3671875 C23.58863281 9.24601563 22.80617188 9.12484375 22 9 C22 8.34 22 7.68 22 7 C20.02 6.34 18.04 5.68 16 5 C16 4.34 16 3.68 16 3 C15.02160156 3.03480469 15.02160156 3.03480469 14.0234375 3.0703125 C8.91301097 3.17583753 4.79574967 3.01926302 0 1 C0 0.67 0 0.34 0 0 Z " fill="#6481B0" transform="translate(256,137)"/>
<path d="M0 0 C0.66 0.33 1.32 0.66 2 1 C1.525625 1.804375 1.05125 2.60875 0.5625 3.4375 C-1.29359618 7.66939929 -1.70559978 11.43172078 -2 16 C-1.34 16 -0.68 16 0 16 C1.3157048 20.76942989 2.47543452 25.00793749 2 30 C1.34 30.66 0.68 31.32 0 32 C-6.09201304 10.46722435 -6.09201304 10.46722435 -3.10546875 4.08984375 C-2 2.4375 -2 2.4375 0 0 Z " fill="#718EBC" transform="translate(111,411)"/>
<path d="M0 0 C1.60781893 0.7631861 3.21113138 1.53587058 4.8125 2.3125 C5.70582031 2.74175781 6.59914062 3.17101562 7.51953125 3.61328125 C9.87151895 4.92817201 11.42398686 5.82654397 13 8 C13.36328125 10.41015625 13.36328125 10.41015625 13.3125 13.0625 C13.30863281 13.94035156 13.30476562 14.81820312 13.30078125 15.72265625 C13 18 13 18 11 20 C10.01 20 9.02 20 8 20 C8 17.69 8 15.38 8 13 C8.66 13 9.32 13 10 13 C10 12.34 10 11.68 10 11 C9.01 11.33 8.02 11.66 7 12 C7 9.69 7 7.38 7 5 C6.21625 4.9175 5.4325 4.835 4.625 4.75 C2 4 2 4 0.8359375 1.953125 C0.56007812 1.30859375 0.28421875 0.6640625 0 0 Z " fill="#5A79AA" transform="translate(172,152)"/>
<path d="M0 0 C2.02558881 3.34939881 2.21738987 5.86962551 2.125 9.75 C2.10695313 10.73484375 2.08890625 11.7196875 2.0703125 12.734375 C2.03550781 13.85585938 2.03550781 13.85585938 2 15 C5.465 14.505 5.465 14.505 9 14 C9.33 13.01 9.66 12.02 10 11 C11.65 11 13.3 11 15 11 C12.76950953 14.47956513 11.59657608 15.82645059 7.5625 17 C3.54067785 17 1.99779629 16.655191 -1 14 C-2.65174127 11.04063023 -3.29765273 9.16336104 -2.4453125 5.83203125 C-1.71090394 3.8561225 -0.86228085 1.92354959 0 0 Z " fill="#8196BD" transform="translate(264,364)"/>
<path d="M0 0 C0.99 0.33 1.98 0.66 3 1 C2.84660156 1.90878906 2.69320312 2.81757813 2.53515625 3.75390625 C1.76833184 9.12167713 1.64244689 14.52488616 1.4375 19.9375 C1.39431641 21.00291016 1.35113281 22.06832031 1.30664062 23.16601562 C1.20125511 25.77723443 1.09912912 28.38853746 1 31 C1.66 31 2.32 31 3 31 C3.33 34.3 3.66 37.6 4 41 C-1.68948418 35.31051582 -1.05444434 24.06785831 -1.125 16.5625 C-1.08568109 10.99232112 -0.69835819 5.52451213 0 0 Z " fill="#718FBD" transform="translate(109,282)"/>
<path d="M0 0 C0.66 0 1.32 0 2 0 C2.09038099 5.15171623 1.84681133 9.91913204 1 15 C-4.61231586 17.34696845 -9.86416876 18.94629469 -16 19 C-17 18 -17 18 -17.09765625 15.93359375 C-17.08605469 15.10988281 -17.07445312 14.28617188 -17.0625 13.4375 C-17.05347656 12.61121094 -17.04445312 11.78492188 -17.03515625 10.93359375 C-17.02355469 10.29550781 -17.01195312 9.65742188 -17 9 C-16.67 9 -16.34 9 -16 9 C-15.67 11.64 -15.34 14.28 -15 17 C-8.07 15.515 -8.07 15.515 -1 14 C-0.67 9.38 -0.34 4.76 0 0 Z " fill="#6483B8" transform="translate(199,196)"/>
<path d="M0 0 C0.33 0 0.66 0 1 0 C2.03790614 5.18953069 2.03790614 5.18953069 2 8 C0.3125 10.1875 0.3125 10.1875 -2 12 C-4.56121187 14.92709928 -6.42193633 17.0980702 -7 21 C-8.32 20.67 -9.64 20.34 -11 20 C-7.37 13.4 -3.74 6.8 0 0 Z " fill="#5579AC" transform="translate(340,286)"/>
<path d="M0 0 C2.5018706 5.00374121 2.51940422 9.05423617 2.75 14.5625 C2.80542969 15.52091797 2.86085938 16.47933594 2.91796875 17.46679688 C2.96050781 18.38654297 3.00304687 19.30628906 3.046875 20.25390625 C3.08651367 21.09252197 3.12615234 21.9311377 3.16699219 22.79516602 C3 25 3 25 1 28 C0.34 28 -0.32 28 -1 28 C-1 27.34 -1 26.68 -1 26 C-4.63 26 -8.26 26 -12 26 C-12 25.67 -12 25.34 -12 25 C-8.04 25 -4.08 25 0 25 C0 16.75 0 8.5 0 0 Z " fill="#45699F" transform="translate(307,200)"/>
<path d="M0 0 C2.76142665 1.01736771 3.68085371 1.36170741 5 4 C5.2430836 8.94269981 5.25495121 12.49009758 3 17 C2.34 16.67 1.68 16.34 1 16 C1.16371094 15.43796875 1.32742187 14.8759375 1.49609375 14.296875 C2.02864997 11.86940944 2.09898681 9.73110319 2.0625 7.25 C2.05347656 6.45078125 2.04445312 5.6515625 2.03515625 4.828125 C2.02355469 4.22484375 2.01195312 3.6215625 2 3 C0.56208484 3.14168137 -0.8753237 3.28851043 -2.3125 3.4375 C-3.11300781 3.51871094 -3.91351563 3.59992188 -4.73828125 3.68359375 C-7.16087179 3.95265693 -7.16087179 3.95265693 -10 5 C-9.625 3.0625 -9.625 3.0625 -9 1 C-5.97562661 -0.5121867 -3.33758466 -0.17263369 0 0 Z " fill="#7085A8" transform="translate(132,250)"/>
<path d="M0 0 C0 0.66 0 1.32 0 2 C-3.96 2 -7.92 2 -12 2 C-12.33 2.66 -12.66 3.32 -13 4 C-15.72265625 4.4140625 -15.72265625 4.4140625 -19.0625 4.625 C-20.16722656 4.69976562 -21.27195313 4.77453125 -22.41015625 4.8515625 C-23.26480469 4.90054688 -24.11945313 4.94953125 -25 5 C-22.55161363 1.31618931 -20.73046292 0.2289368 -16.32421875 -0.69140625 C-10.8232104 -1.42179223 -5.35960564 -1.53658419 0 0 Z " fill="#809CC0" transform="translate(163,200)"/>
<path d="M0 0 C0.33 0.66 0.66 1.32 1 2 C4.96 2 8.92 2 13 2 C13 2.33 13 2.66 13 3 C19.93 3.495 19.93 3.495 27 4 C27 4.33 27 4.66 27 5 C22.75005737 5.05805933 18.50021676 5.09361654 14.25 5.125 C13.0434375 5.14175781 11.836875 5.15851563 10.59375 5.17578125 C9.43359375 5.18222656 8.2734375 5.18867188 7.078125 5.1953125 C6.00981445 5.20578613 4.94150391 5.21625977 3.84082031 5.22705078 C1.02020895 5.00161519 -0.60787463 4.45848994 -3 3 C-2.01 2.01 -1.02 1.02 0 0 Z " fill="#7898CA" transform="translate(169,491)"/>
<path d="M0 0 C-3.96 0 -7.92 0 -12 0 C-12.33 0.99 -12.66 1.98 -13 3 C-16.3 2.67 -19.6 2.34 -23 2 C-22.67 1.01 -22.34 0.02 -22 -1 C-4.82432432 -3.21621622 -4.82432432 -3.21621622 0 0 Z " fill="#4A6DA9" transform="translate(259,139)"/>
<path d="M0 0 C2.375 2 2.375 2 4 4 C3.67 4.66 3.34 5.32 3 6 C2.01 5.67 1.02 5.34 0 5 C-1.72795352 4.93197033 -3.45835365 4.91504355 -5.1875 4.9375 C-6.08855469 4.94652344 -6.98960937 4.95554687 -7.91796875 4.96484375 C-8.94857422 4.98224609 -8.94857422 4.98224609 -10 5 C-9.6875 3.0625 -9.6875 3.0625 -9 1 C-5.68377419 -0.1054086 -3.47482175 -0.35457365 0 0 Z " fill="#6886B1" transform="translate(257,92)"/>
<path d="M0 0 C4.3322929 -0.4247346 6.34962488 -0.47048413 9.9375 2.125 C12.30954571 5.43148796 12.46233492 7.0239197 12 11 C7.2 7.55384615 7.2 7.55384615 6.1875 4.75 C6.125625 4.1725 6.06375 3.595 6 3 C3.69 3 1.38 3 -1 3 C-0.67 2.01 -0.34 1.02 0 0 Z " fill="#4A72B0" transform="translate(113,410)"/>
<path d="M0 0 C2.31 0 4.62 0 7 0 C7.45375 0.969375 7.9075 1.93875 8.375 2.9375 C9.65786221 6.07079582 9.65786221 6.07079582 12 7 C12 8.65 12 10.3 12 12 C9.95880212 10.38405168 7.95927063 8.7143618 6 7 C6 6.34 6 5.68 6 5 C5.38125 4.731875 4.7625 4.46375 4.125 4.1875 C2 3 2 3 0 0 Z " fill="#6184BA" transform="translate(286,165)"/>
<path d="M0 0 C0.33 0.66 0.66 1.32 1 2 C5.455 1.505 5.455 1.505 10 1 C7.02187403 2.98541731 4.50156031 3.98825276 1.125 5.125 C0.09632813 5.47820312 -0.93234375 5.83140625 -1.9921875 6.1953125 C-4.82719431 6.95376887 -7.08640824 7.16126892 -10 7 C-8.71567636 4.43135272 -7.63365249 4.053461 -5 3 C-3.68 3 -2.36 3 -1 3 C-0.67 2.01 -0.34 1.02 0 0 Z " fill="#6283BD" transform="translate(208,488)"/>
<path d="M0 0 C0 0.66 0 1.32 0 2 C-0.99 2 -1.98 2 -3 2 C-3 2.66 -3 3.32 -3 4 C-9.11628115 5.83768998 -14.16145766 6.14116794 -20.5 5.625 C-21.32242188 5.56828125 -22.14484375 5.5115625 -22.9921875 5.453125 C-24.99560966 5.31335136 -26.99795503 5.15828133 -29 5 C-29 4.67 -29 4.34 -29 4 C-28.09290283 3.92483154 -28.09290283 3.92483154 -27.16748047 3.84814453 C-24.40261836 3.61469552 -21.63886633 3.36994583 -18.875 3.125 C-17.92367187 3.04636719 -16.97234375 2.96773438 -15.9921875 2.88671875 C-10.65443146 2.404838 -5.13720302 0 0 0 Z " fill="#6C8CBC" transform="translate(209,474)"/>
<path d="M0 0 C3.17744758 4.76617138 3.40516138 9.32774071 3 15 C1.59539303 17.87305972 0.25489001 19.74510999 -2 22 C-5.625 22.125 -5.625 22.125 -9 22 C-9 21.67 -9 21.34 -9 21 C-7.35 20.67 -5.7 20.34 -4 20 C-4 19.34 -4 18.68 -4 18 C-2.68 18 -1.36 18 0 18 C0 12.06 0 6.12 0 0 Z " fill="#7895C1" transform="translate(214,406)"/>
<path d="M0 0 C2 1 2 1 3.1484375 3.9140625 C3.55320313 5.13867188 3.95796875 6.36328125 4.375 7.625 C6.12407452 12.77872164 8.05204587 17.41429358 11 22 C10.34 22 9.68 22 9 22 C7.00568695 20.00568695 6.24349201 18.48698402 5 16 C4.505 15.401875 4.01 14.80375 3.5 14.1875 C0.56277431 9.90404587 -0.31078785 5.12799953 0 0 Z " fill="#6A8BB9" transform="translate(166,286)"/>
<path d="M0 0 C3.875 1.875 3.875 1.875 5 3 C7.95377498 5.36980013 7.95377498 5.36980013 12 5 C11.34 4.34 10.68 3.68 10 3 C11.65 3 13.3 3 15 3 C15 2.34 15 1.68 15 1 C15.66 1 16.32 1 17 1 C15.75023244 4.65316671 15.32901247 5.78065836 12 8 C7.5422164 7.91744845 5.5257503 7.43626089 2.0625 4.5625 C0 2 0 2 0 0 Z " fill="#7A93BA" transform="translate(244,269)"/>
<path d="M0 0 C-0.680625 0.33 -1.36125 0.66 -2.0625 1 C-5.52971677 3.36065823 -7.8182473 6.11779878 -10.44921875 9.35546875 C-10.96097656 9.89816406 -11.47273437 10.44085938 -12 11 C-12.66 11 -13.32 11 -14 11 C-14.33 10.01 -14.66 9.02 -15 8 C-14.34 7.34 -13.68 6.68 -13 6 C-12.01 6 -11.02 6 -10 6 C-10 4.68 -10 3.36 -10 2 C-9.01 2 -8.02 2 -7 2 C-7 1.34 -7 0.68 -7 0 C-3.98968256 -0.93423645 -3.13349732 -1.04449911 0 0 Z " fill="#718CC1" transform="translate(188,246)"/>
<path d="M0 0 C0.99 1.32 1.98 2.64 3 4 C2.34 4 1.68 4 1 4 C0.938125 4.86625 0.87625 5.7325 0.8125 6.625 C-0.23122656 10.96047956 -1.99278171 12.76145723 -5 16 C-6.32095328 12.03714015 -5.27105135 10.64909563 -3.625 6.875 C-3.16351563 5.79992187 -2.70203125 4.72484375 -2.2265625 3.6171875 C-1 1 -1 1 0 0 Z " fill="#5977AC" transform="translate(192,171)"/>
<path d="M0 0 C-0.61277612 2.96175123 -1.25372522 4.38058783 -3 7 C-4.32 7 -5.64 7 -7 7 C-7.33 7.99 -7.66 8.98 -8 10 C-10.0625 10.6875 -10.0625 10.6875 -12 11 C-11.64037102 8.14820529 -11.11014144 7.10604616 -9.00390625 5.078125 C-8.19824219 4.47484375 -7.39257812 3.8715625 -6.5625 3.25 C-5.75941406 2.63640625 -4.95632813 2.0228125 -4.12890625 1.390625 C-2 0 -2 0 0 0 Z " fill="#6686B6" transform="translate(305,329)"/>
<path d="M0 0 C1.31223496 3.93670488 0.24296256 6.12488144 -1 10 C-1.66 10 -2.32 10 -3 10 C-3 10.66 -3 11.32 -3 12 C-2.34 12.66 -1.68 13.32 -1 14 C-0.67 14.99 -0.34 15.98 0 17 C-3.875 15.25 -3.875 15.25 -5 13 C-5.50856628 7.82957619 -5.50856628 7.82957619 -5 5 C-2.5 2 -2.5 2 0 0 Z " fill="#6989BB" transform="translate(327,156)"/>
<path d="M0 0 C4.455 0.99 4.455 0.99 9 2 C9 2.66 9 3.32 9 4 C9.66 4 10.32 4 11 4 C11.33 5.65 11.66 7.3 12 9 C7.09198451 7.51272258 3.59508707 4.55364515 0 1 C0 0.67 0 0.34 0 0 Z " fill="#597AAE" transform="translate(134,476)"/>
<path d="M0 0 C0.66 0.33 1.32 0.66 2 1 C1.01 1.8971875 1.01 1.8971875 0 2.8125 C-2.3373846 4.87501834 -2.3373846 4.87501834 -2 8 C-4.57404971 11.86107457 -6.61020259 11.94319692 -11 13 C-7.61227103 8.30840284 -4.21814817 3.9700218 0 0 Z " fill="#7894BC" transform="translate(280,347)"/>
<path d="M0 0 C1.9375 0.9375 1.9375 0.9375 4 3 C4.84818625 5.99655273 5.30942111 8.89453722 5 12 C3.62890625 13.78125 3.62890625 13.78125 2 15 C1.34 15 0.68 15 0 15 C0 14.01 0 13.02 0 12 C0.66 12 1.32 12 2 12 C2.33 9.36 2.66 6.72 3 4 C1.35 4 -0.3 4 -2 4 C-2 3.34 -2 2.68 -2 2 C-1.34 2 -0.68 2 0 2 C0 1.34 0 0.68 0 0 Z " fill="#6788B6" transform="translate(365,201)"/>
<path d="M0 0 C0.99 0.33 1.98 0.66 3 1 C2.9375 3.75 2.9375 3.75 2 7 C-0.22511214 8.76511299 -2.40437603 9.77297776 -5 11 C-5 7.58678765 -4.33132534 6.60527115 -2.5 3.8125 C-2.0359375 3.09707031 -1.571875 2.38164063 -1.09375 1.64453125 C-0.7328125 1.10183594 -0.371875 0.55914062 0 0 Z " fill="#6385BC" transform="translate(300,110)"/>
<path d="M0 0 C0.061875 0.61875 0.12375 1.2375 0.1875 1.875 C0.455625 2.57625 0.72375 3.2775 1 4 C2.6476038 4.71247732 4.31763529 5.37400383 6 6 C8.3125 8.0625 8.3125 8.0625 10 10 C10 10.33 10 10.66 10 11 C7.25 11.3125 7.25 11.3125 4 11 C0.94338095 8.26513033 0.06025422 6.79836847 -0.25 2.6875 C-0.1675 1.800625 -0.085 0.91375 0 0 Z " fill="#3F65A7" transform="translate(323,162)"/>
<path d="M0 0 C0.33 0.66 0.66 1.32 1 2 C0.67 2.66 0.34 3.32 0 4 C0.66 4 1.32 4 2 4 C1.67 4.99 1.34 5.98 1 7 C-0.65 7.33 -2.3 7.66 -4 8 C-4 8.66 -4 9.32 -4 10 C-5.32 10.33 -6.64 10.66 -8 11 C-5.69281189 6.71522208 -3.67033927 3.27708863 0 0 Z " fill="#708DBD" transform="translate(201,159)"/>
<path d="M0 0 C1.1615864 4.15383295 1.20522181 7.69034192 1 12 C0.01 13.485 0.01 13.485 -1 15 C-1.45915507 17.96842658 -1.45915507 17.96842658 -1.625 21.1875 C-1.69976562 22.27417969 -1.77453125 23.36085938 -1.8515625 24.48046875 C-1.90054688 25.31191406 -1.94953125 26.14335937 -2 27 C-2.33 27 -2.66 27 -3 27 C-3.38408795 17.51160514 -2.55403863 9.15197174 0 0 Z " fill="#6A88BB" transform="translate(151,260)"/>
<path d="M0 0 C0.66 1.32 1.32 2.64 2 4 C1.04270084 5.12588014 0.08412105 6.2506715 -0.875 7.375 C-1.40867188 8.00148437 -1.94234375 8.62796875 -2.4921875 9.2734375 C-3.61432007 10.55836651 -4.79371975 11.79371975 -6 13 C-6.33 10.69 -6.66 8.38 -7 6 C-6.01 5.34 -5.02 4.68 -4 4 C-4 4.66 -4 5.32 -4 6 C-2.68 5.67 -1.36 5.34 0 5 C-0.2784375 4.0409375 -0.2784375 4.0409375 -0.5625 3.0625 C-0.706875 2.381875 -0.85125 1.70125 -1 1 C-0.67 0.67 -0.34 0.34 0 0 Z " fill="#4E75B5" transform="translate(215,166)"/>
<path d="M0 0 C0.33 0.66 0.66 1.32 1 2 C-2.625 6.875 -2.625 6.875 -6 8 C-6.33 9.65 -6.66 11.3 -7 13 C-7.99 12.67 -8.98 12.34 -10 12 C-9.42541562 8.43442842 -8.14644352 6.78900304 -5.5625 4.3125 C-4.94503906 3.71050781 -4.32757813 3.10851562 -3.69140625 2.48828125 C-2 1 -2 1 0 0 Z " fill="#6489BE" transform="translate(234,455)"/>
<path d="M0 0 C0.99 0 1.98 0 3 0 C2.40716379 3.39192363 1.23256811 5.2107757 -1.0625 7.75 C-1.61035156 8.36359375 -2.15820312 8.9771875 -2.72265625 9.609375 C-3.14417969 10.06828125 -3.56570313 10.5271875 -4 11 C-5.13583456 7.28272326 -4.66670026 5.52948291 -3 2 C-2.01 2 -1.02 2 0 2 C0 1.34 0 0.68 0 0 Z " fill="#4F79B6" transform="translate(341,316)"/>
<path d="M0 0 C0.66 0 1.32 0 2 0 C2.508783 1.55966218 3.00663469 3.12289241 3.5 4.6875 C3.7784375 5.55761719 4.056875 6.42773438 4.34375 7.32421875 C4.99850805 9.99391677 5.11831495 12.26396684 5 15 C4.01 15.495 4.01 15.495 3 16 C3 15.34 3 14.68 3 14 C2.34 13.67 1.68 13.34 1 13 C0.5859375 10.05859375 0.5859375 10.05859375 0.375 6.4375 C0.30023438 5.23996094 0.22546875 4.04242188 0.1484375 2.80859375 C0.09945313 1.88175781 0.05046875 0.95492187 0 0 Z " fill="#6689B9" transform="translate(320,184)"/>
<path d="M0 0 C2.77813634 1.14423241 5.38962387 2.51592829 8 4 C5 5 5 5 2.75 4 C-1.70758535 2.37905987 -5.60775358 3.53591786 -10 5 C-7.68776832 -0.11994158 -5.56925984 -0.51567221 0 0 Z " fill="#788CB2" transform="translate(163,146)"/>
<path d="M0 0 C0.66 0.33 1.32 0.66 2 1 C1.2575 2.1446875 1.2575 2.1446875 0.5 3.3125 C-1.52109197 8.28101775 -1.25431356 12.70651036 -1 18 C-1.66 18 -2.32 18 -3 18 C-4.49491558 13.51525326 -5.15796289 8.4878504 -3.10546875 4.078125 C-2 2.4375 -2 2.4375 0 0 Z " fill="#839BC1" transform="translate(111,411)"/>
<path d="M0 0 C0.99 1.0209375 0.99 1.0209375 2 2.0625 C5.49468234 5.56725347 9.25130779 8.77221788 13 12 C11.15625 12.62890625 11.15625 12.62890625 9 13 C5.20329068 9.86771481 2.52364685 6.20607808 0 2 C0 1.34 0 0.68 0 0 Z " fill="#7B96C0" transform="translate(146,340)"/>
<path d="M0 0 C2.31 0 4.62 0 7 0 C7 0.99 7 1.98 7 3 C7.804375 3.12375 8.60875 3.2475 9.4375 3.375 C10.7059375 3.684375 10.7059375 3.684375 12 4 C12.33 4.66 12.66 5.32 13 6 C10 7 10 7 7.7734375 6.07421875 C6.58621094 5.38779297 6.58621094 5.38779297 5.375 4.6875 C4.57835937 4.23761719 3.78171875 3.78773438 2.9609375 3.32421875 C1 2 1 2 0 0 Z " fill="#5C80B2" transform="translate(225,248)"/>
<path d="M0 0 C5.11672973 3.50222763 8.90644332 6.58627581 12 12 C9.03 11.505 9.03 11.505 6 11 C6 9.35 6 7.7 6 6 C5.01 6 4.02 6 3 6 C3 5.34 3 4.68 3 4 C2.01 4 1.02 4 0 4 C0 2.68 0 1.36 0 0 Z " fill="#6B8DBB" transform="translate(335,235)"/>
<path d="M0 0 C0.33 0 0.66 0 1 0 C2.66666667 5 4.33333333 10 6 15 C5.34 15.66 4.68 16.32 4 17 C3.13227971 14.92227529 2.28126381 12.83756823 1.4375 10.75 C0.96183594 9.58984375 0.48617187 8.4296875 -0.00390625 7.234375 C-0.95770524 4.13733356 -1.20983356 2.92678299 0 0 Z " fill="#5B7DB3" transform="translate(151,292)"/>
<path d="M0 0 C0 0.99 0 1.98 0 3 C-1.55966218 3.508783 -3.12289241 4.00663469 -4.6875 4.5 C-5.99267578 4.91765625 -5.99267578 4.91765625 -7.32421875 5.34375 C-9.99391677 5.99850805 -12.26396684 6.11831495 -15 6 C-10.8310781 2.35219334 -5.55196264 0 0 0 Z " fill="#7193C1" transform="translate(236,139)"/>
<path d="M0 0 C0.99 0.99 1.98 1.98 3 3 C2.02433888 4.16959987 1.044375 5.33561177 0.0625 6.5 C-0.48277344 7.1496875 -1.02804688 7.799375 -1.58984375 8.46875 C-2.05519531 8.9740625 -2.52054688 9.479375 -3 10 C-3.33 10 -3.66 10 -4 10 C-3.38461538 3.47692308 -3.38461538 3.47692308 -1.4375 1.0625 C-0.7259375 0.5365625 -0.7259375 0.5365625 0 0 Z " fill="#6A8BC2" transform="translate(239,469)"/>
<path d="M0 0 C2.09350689 3.4019487 2.17942163 6.05272412 2 10 C0.68 10.33 -0.64 10.66 -2 11 C-3.13643966 7.59068103 -2.86747764 6.99664544 -1.5625 3.8125 C-1.13130859 2.73935547 -1.13130859 2.73935547 -0.69140625 1.64453125 C-0.46324219 1.10183594 -0.23507812 0.55914062 0 0 Z " fill="#6882B5" transform="translate(264,364)"/>
<path d="M0 0 C1.9375 0.125 1.9375 0.125 4 1 C5.25 3.5625 5.25 3.5625 6 6 C5.01 6.66 4.02 7.32 3 8 C1 7 1 7 -0.125 3.9375 C-0.41375 2.968125 -0.7025 1.99875 -1 1 C-0.67 0.67 -0.34 0.34 0 0 Z " fill="#3A69B5" transform="translate(194,327)"/>
<path d="M0 0 C2.75 0.5625 2.75 0.5625 4.75 2.5625 C3.0484375 2.9646875 3.0484375 2.9646875 1.3125 3.375 C0.136875 3.766875 -1.03875 4.15875 -2.25 4.5625 C-2.58 5.5525 -2.91 6.5425 -3.25 7.5625 C-5.23 7.5625 -7.21 7.5625 -9.25 7.5625 C-4.35142329 0.75313095 -4.35142329 0.75313095 0 0 Z " fill="#3B69AA" transform="translate(209.25,224.4375)"/>
<path d="M0 0 C0.99 0.33 1.98 0.66 3 1 C2.2116391 2.77230751 1.41918653 4.54279534 0.625 6.3125 C0.18414062 7.29863281 -0.25671875 8.28476563 -0.7109375 9.30078125 C-2 12 -2 12 -4 15 C-4.9765625 8.9453125 -4.9765625 8.9453125 -5 7 C-3.81231727 5.81231727 -2.60920308 4.63926438 -1.375 3.5 C0.22524154 2.09342405 0.22524154 2.09342405 0 0 Z " fill="#6A8CBC" transform="translate(206,179)"/>
<path d="M0 0 C4.31850989 1.48914134 5.03832981 4.07665963 7 8 C9.05093145 9.40466953 9.05093145 9.40466953 11 10 C10.67 10.99 10.34 11.98 10 13 C5.73407468 9.70360316 2.74039221 6.74298651 0 2 C0 1.34 0 0.68 0 0 Z " fill="#7491BE" transform="translate(222,367)"/>
<path d="M0 0 C1.28583984 -0.01160156 1.28583984 -0.01160156 2.59765625 -0.0234375 C4.9375 0.375 4.9375 0.375 7.9375 3.375 C2.3275 3.375 -3.2825 3.375 -9.0625 3.375 C-4.50810358 -0.04079732 -4.50810358 -0.04079732 0 0 Z " fill="#698AB7" transform="translate(347.0625,146.625)"/>
<path d="M0 0 C2.00130916 2.54712074 3.85727656 4.9527375 5 8 C4.625 10.25 4.625 10.25 4 12 C3.01 11.34 2.02 10.68 1 10 C0.3125 6.375 0.3125 6.375 0 3 C-0.99 2.67 -1.98 2.34 -3 2 C-2.01 1.34 -1.02 0.68 0 0 Z " fill="#5E82BA" transform="translate(351,253)"/>
<path d="M0 0 C1.32129824 0.734389 2.63183171 1.48816894 3.9375 2.25 C4.66839844 2.66765625 5.39929688 3.0853125 6.15234375 3.515625 C8.31857318 5.25593617 8.63594751 6.29561004 9 9 C8.01 8.34 7.02 7.68 6 7 C4.34450469 6.61500109 2.6777567 6.27206865 1 6 C0.67 4.02 0.34 2.04 0 0 Z " fill="#6788BD" transform="translate(198,327)"/>
<path d="M0 0 C0.99 0 1.98 0 3 0 C1 5 -1 10 -3 15 C-3.33 15 -3.66 15 -4 15 C-4.50610724 8.92671312 -3.04157942 5.22771463 0 0 Z " fill="#6E8ABE" transform="translate(131,268)"/>
<path d="M0 0 C0.99 0 1.98 0 3 0 C3.061875 0.61875 3.12375 1.2375 3.1875 1.875 C3.828919 4.27761141 3.828919 4.27761141 6.5625 5.25 C7.366875 5.4975 8.17125 5.745 9 6 C9 6.99 9 7.98 9 9 C7.68 9.33 6.36 9.66 5 10 C3.35 6.7 1.7 3.4 0 0 Z " fill="#6E8AB8" transform="translate(238,259)"/>
<path d="M0 0 C0.99 0.66 1.98 1.32 3 2 C2.67 4.31 2.34 6.62 2 9 C0.35 9.33 -1.3 9.66 -3 10 C-2.690625 9.46375 -2.38125 8.9275 -2.0625 8.375 C-0.82172561 5.6015043 -0.4090325 2.99957163 0 0 Z " fill="#396ABC" transform="translate(168,205)"/>
<path d="M0 0 C1.32 0 2.64 0 4 0 C4 3.3 4 6.6 4 10 C3.67 9.01 3.34 8.02 3 7 C2.01 7.33 1.02 7.66 0 8 C0 5.36 0 2.72 0 0 Z " fill="#456EA9" transform="translate(354,270)"/>
<path d="M0 0 C0 0.66 0 1.32 0 2 C-1.6396875 2.2165625 -1.6396875 2.2165625 -3.3125 2.4375 C-6.93122987 2.88288104 -6.93122987 2.88288104 -10 4 C-13.1875 3.0625 -13.1875 3.0625 -16 2 C-16 1.67 -16 1.34 -16 1 C-10.62915894 0.31798844 -5.41499441 -0.11521265 0 0 Z " fill="#637EB1" transform="translate(205,224)"/>
<path d="M0 0 C2.475 0.99 2.475 0.99 5 2 C5.33 4.64 5.66 7.28 6 10 C2.51668565 6.98112756 1.20842856 4.43090471 0 0 Z M7 0 C7.33 0.66 7.66 1.32 8 2 C7.01 1.67 6.02 1.34 5 1 C5.66 0.67 6.32 0.34 7 0 Z " fill="#6C8EC1" transform="translate(118,456)"/>
<path d="M0 0 C3.78611227 0.54087318 5.55400767 2.11722332 8 5 C8 5.66 8 6.32 8 7 C8.99 7.33 9.98 7.66 11 8 C10.34 8.66 9.68 9.32 9 10 C7.49702124 8.52386015 5.99768715 7.04400843 4.5 5.5625 C3.6646875 4.73878906 2.829375 3.91507812 1.96875 3.06640625 C0 1 0 1 0 0 Z " fill="#7393C2" transform="translate(163,319)"/>
<path d="M0 0 C0.99 0.33 1.98 0.66 3 1 C3.16682272 5.92127034 3.24828052 9.50343896 1 14 C0.34 13.67 -0.32 13.34 -1 13 C-0.83628906 12.43796875 -0.67257813 11.8759375 -0.50390625 11.296875 C0.02864997 8.86940944 0.09898681 6.73110319 0.0625 4.25 C0.05347656 3.45078125 0.04445312 2.6515625 0.03515625 1.828125 C0.02355469 1.22484375 0.01195312 0.6215625 0 0 Z " fill="#879EBE" transform="translate(134,253)"/>
<path d="M0 0 C1.39840882 0.49275091 2.79514957 0.99038154 4.1875 1.5 C4.1875 1.83 4.1875 2.16 4.1875 2.5 C1.70729503 2.38658509 -0.77094969 2.25985314 -3.25 2.125 C-3.95705078 2.0940625 -4.66410156 2.063125 -5.39257812 2.03125 C-7.20489188 1.92719371 -9.01067988 1.72080108 -10.8125 1.5 C-11.1425 0.84 -11.4725 0.18 -11.8125 -0.5 C-7.70053074 -2.55598463 -4.16703172 -1.38901057 0 0 Z " fill="#5276B0" transform="translate(167.8125,149.5)"/>
<path d="M0 0 C4.875 2.625 4.875 2.625 6 6 C5.01 6.99 4.02 7.98 3 9 C1.35173889 6.03312999 0.55728913 3.34373475 0 0 Z " fill="#4E71A7" transform="translate(204,391)"/>
<path d="M0 0 C2.76223278 2.76223278 2.57856291 5.20706617 3 9 C1.68 8.67 0.36 8.34 -1 8 C-1.33 5.69 -1.66 3.38 -2 1 C-1.34 0.67 -0.68 0.34 0 0 Z " fill="#3B6AAA" transform="translate(267,363)"/>
<path d="M0 0 C1.32 0 2.64 0 4 0 C4.33 0.66 4.66 1.32 5 2 C7.02463255 2.65213292 7.02463255 2.65213292 9 3 C9 3.99 9 4.98 9 6 C9.66 6 10.32 6 11 6 C10.67 6.99 10.34 7.98 10 9 C8.33043913 7.69118353 6.66441696 6.37785174 5 5.0625 C4.071875 4.33160156 3.14375 3.60070312 2.1875 2.84765625 C1.465625 2.23792969 0.74375 1.62820313 0 1 C0 0.67 0 0.34 0 0 Z " fill="#6B89BB" transform="translate(173,329)"/>
<path d="M0 0 C1.32 0.33 2.64 0.66 4 1 C4.12375 1.556875 4.2475 2.11375 4.375 2.6875 C5.05976855 5.22114364 5.99133763 7.57921032 7 10 C6.01 10 5.02 10 4 10 C0 3.375 0 3.375 0 0 Z " fill="#5F7DB2" transform="translate(113,323)"/>
<path d="M0 0 C0.33 0 0.66 0 1 0 C1 2.64 1 5.28 1 8 C1.66 8 2.32 8 3 8 C3.33 11.3 3.66 14.6 4 18 C0.80626843 14.80626843 0.09811818 10.93170168 -0.125 6.5390625 C-0.125 4.35560786 -0.08904106 2.18150585 0 0 Z " fill="#8AA3CD" transform="translate(109,305)"/>
<path d="M0 0 C-0.33 1.32 -0.66 2.64 -1 4 C-4.63 4.33 -8.26 4.66 -12 5 C-7.90310444 1.92732833 -5.13829491 0 0 0 Z " fill="#6E8AC0" transform="translate(286,227)"/>
<path d="M0 0 C0.33 0.66 0.66 1.32 1 2 C1.99 2.33 2.98 2.66 4 3 C4.12375 4.134375 4.2475 5.26875 4.375 6.4375 C4.684375 8.2009375 4.684375 8.2009375 5 10 C5.66 10.33 6.32 10.66 7 11 C6.34 11.66 5.68 12.32 5 13 C4.15930585 11.39967863 3.32768495 9.79458829 2.5 8.1875 C1.80390625 6.84751953 1.80390625 6.84751953 1.09375 5.48046875 C0 3 0 3 0 0 Z " fill="#6384BA" transform="translate(112,443)"/>
<path d="M0 0 C3.35400549 0.59892955 5.49855497 1.67106842 8 4 C8.75 6.1875 8.75 6.1875 9 8 C5.56247993 6.4722133 2.81046312 4.49818944 0 2 C0 1.34 0 0.68 0 0 Z " fill="#7091BB" transform="translate(172,383)"/>
<path d="M0 0 C0.33 0.99 0.66 1.98 1 3 C1.99 3.33 2.98 3.66 4 4 C4.3721042 5.32303717 4.70630173 6.65737935 5 8 C5.66 8.33 6.32 8.66 7 9 C3.60406522 9 2.93380119 8.47834052 0.3125 6.5 C-0.31011719 6.0359375 -0.93273437 5.571875 -1.57421875 5.09375 C-2.04472656 4.7328125 -2.51523438 4.371875 -3 4 C-2.34 3.67 -1.68 3.34 -1 3 C-0.67 2.01 -0.34 1.02 0 0 Z " fill="#587CB5" transform="translate(200,345)"/>
<path d="M0 0 C2 1.3125 2 1.3125 4 3 C4 3.99 4 4.98 4 6 C3.34 6 2.68 6 2 6 C1.67 6.66 1.34 7.32 1 8 C0.34 7.67 -0.32 7.34 -1 7 C-1.33 7.99 -1.66 8.98 -2 10 C-1.54177532 6.53058454 -1.10868317 3.32604951 0 0 Z " fill="#6484BE" transform="translate(113,267)"/>
<path d="M0 0 C0.66 0.33 1.32 0.66 2 1 C-0.31537955 4.72114571 -2.28579473 7.61229661 -6 10 C-6.66 9.67 -7.32 9.34 -8 9 C-5.36 6.03 -2.72 3.06 0 0 Z " fill="#779BC4" transform="translate(264,238)"/>
<path d="M0 0 C4.46171506 1.57472296 9.79688514 3.59377029 12 8 C7.25 7.25 7.25 7.25 5 5 C4.319375 4.690625 3.63875 4.38125 2.9375 4.0625 C1 3 1 3 0 0 Z " fill="#799AC4" transform="translate(229,230)"/>
<path d="M0 0 C0.7734375 0.433125 0.7734375 0.433125 1.5625 0.875 C4.62356725 2.28780027 7.74944918 3.1248517 11 4 C10.67 4.99 10.34 5.98 10 7 C6.83976631 6.29772585 3.88719595 5.48261414 1 4 C0.1875 1.875 0.1875 1.875 0 0 Z " fill="#5F81B4" transform="translate(154,159)"/>
<path d="M0 0 C1.32 0.33 2.64 0.66 4 1 C4 1.66 4 2.32 4 3 C5.32 3 6.64 3 8 3 C8 4.32 8 5.64 8 7 C8.66 7.33 9.32 7.66 10 8 C7 8 7 8 5.17578125 6.50390625 C4.56089844 5.86324219 3.94601563 5.22257812 3.3125 4.5625 C2.68988281 3.92441406 2.06726563 3.28632813 1.42578125 2.62890625 C0 1 0 1 0 0 Z " fill="#6483B4" transform="translate(126,345)"/>
<path d="M0 0 C0.99 0.33 1.98 0.66 3 1 C0.36 3.64 -2.28 6.28 -5 9 C-5.99 8.67 -6.98 8.34 -8 8 C-7.34 7.01 -6.68 6.02 -6 5 C-5.01 5 -4.02 5 -3 5 C-2.690625 4.360625 -2.38125 3.72125 -2.0625 3.0625 C-1 1 -1 1 0 0 Z " fill="#6789BA" transform="translate(328,330)"/>
<path d="M0 0 C0.66 0.33 1.32 0.66 2 1 C1.46515599 6.34844008 -0.46690767 10.35796103 -3 15 C-3.33 14.34 -3.66 13.68 -4 13 C-3.36110439 11.65313898 -2.6893902 10.32172742 -2 9 C-1.57848115 7.42841122 -1.2031166 5.84370918 -0.875 4.25 C-0.70742188 3.45078125 -0.53984375 2.6515625 -0.3671875 1.828125 C-0.24601562 1.22484375 -0.12484375 0.6215625 0 0 Z " fill="#849EC9" transform="translate(354,294)"/>
<path d="M0 0 C0 0.66 0 1.32 0 2 C-3.61973402 3.31626692 -6.09567131 4 -10 4 C-10 3.01 -10 2.02 -10 1 C-6.78548731 -0.60725635 -3.56387464 -0.05748185 0 0 Z " fill="#3F67A8" transform="translate(242,154)"/>
<path d="M0 0 C1.4370809 -0.05422947 2.87475462 -0.09289723 4.3125 -0.125 C5.11300781 -0.14820312 5.91351563 -0.17140625 6.73828125 -0.1953125 C9 0 9 0 12 2 C12 2.66 12 3.32 12 4 C6.06 2.515 6.06 2.515 0 1 C0 0.67 0 0.34 0 0 Z " fill="#6F8DBA" transform="translate(303,107)"/>
<path d="M0 0 C0.33 0 0.66 0 1 0 C1 2.97 1 5.94 1 9 C-0.98 9.99 -0.98 9.99 -3 11 C-2.69217504 9.35328588 -2.37860766 7.70764424 -2.0625 6.0625 C-1.88847656 5.14597656 -1.71445313 4.22945313 -1.53515625 3.28515625 C-1 1 -1 1 0 0 Z " fill="#7894BF" transform="translate(245,428)"/>
<path d="M0 0 C1.14926266 0.95421808 2.29430541 1.91352045 3.4375 2.875 C4.07558594 3.40867187 4.71367187 3.94234375 5.37109375 4.4921875 C7 6 7 6 8 8 C6.35 7.67 4.7 7.34 3 7 C3 6.01 3 5.02 3 4 C2.34 4 1.68 4 1 4 C0.67 4.99 0.34 5.98 0 7 C-1.33332095 4.3333581 -0.67102033 2.83319697 0 0 Z " fill="#6E92C8" transform="translate(227,350)"/>
<path d="M0 0 C0.99 0 1.98 0 3 0 C3 0.66 3 1.32 3 2 C3.66 2.33 4.32 2.66 5 3 C3.35 4.98 1.7 6.96 0 9 C-1.15941038 5.52176885 -0.70820884 3.54104422 0 0 Z " fill="#5178AF" transform="translate(345,308)"/>
<path d="M0 0 C1.32 0 2.64 0 4 0 C5.4783226 2.95664519 5.06032783 5.74229737 5 9 C4.01 9.495 4.01 9.495 3 10 C2.87625 9.278125 2.7525 8.55625 2.625 7.8125 C2.0095069 5.04278106 1.11555626 2.6029646 0 0 Z " fill="#486EAB" transform="translate(130,253)"/>
<path d="M0 0 C0.268125 0.598125 0.53625 1.19625 0.8125 1.8125 C2.83614662 5.54027009 5.15900412 7.27817426 9 9 C5.625 9.125 5.625 9.125 2 9 C0 7 0 7 -0.125 3.375 C-0.08375 2.26125 -0.0425 1.1475 0 0 Z " fill="#567AB3" transform="translate(334,207)"/>
<path d="M0 0 C1.32 0 2.64 0 4 0 C5.5635348 3.12706959 5.39958487 6.57982443 5 10 C4.01 11.485 4.01 11.485 3 13 C2.34 13 1.68 13 1 13 C1.33 12.278125 1.66 11.55625 2 10.8125 C3.03242213 7.90881276 3.40080901 6.04614849 3 3 C1.60414215 1.18523997 1.60414215 1.18523997 0 0 Z " fill="#5472A2" transform="translate(168,203)"/>
<path d="M0 0 C-0.125 1.8125 -0.125 1.8125 -1 4 C-4.0625 5.75 -4.0625 5.75 -7 7 C-6.75 4.625 -6.75 4.625 -6 2 C-3.84898936 0.54286376 -2.59713506 0 0 0 Z " fill="#6182B6" transform="translate(350,161)"/>
<path d="M0 0 C4.99911924 0.47610659 7.97832683 2.03162219 12 5 C11.34 5.66 10.68 6.32 10 7 C9.67 6.34 9.34 5.68 9 5 C6.88672575 4.09274566 6.88672575 4.09274566 4.4375 3.375 C3.61121094 3.11460937 2.78492188 2.85421875 1.93359375 2.5859375 C1.29550781 2.39257812 0.65742188 2.19921875 0 2 C0 1.34 0 0.68 0 0 Z " fill="#718AB5" transform="translate(280,143)"/>
<path d="M0 0 C0.66 0.99 1.32 1.98 2 3 C0.02 5.97 0.02 5.97 -2 9 C-2.99 8.67 -3.98 8.34 -5 8 C-1.125 1.125 -1.125 1.125 0 0 Z " fill="#7590C0" transform="translate(159,246)"/>
<path d="M0 0 C0 0.66 0 1.32 0 2 C-0.66 2 -1.32 2 -2 2 C-2.4021875 3.2065625 -2.4021875 3.2065625 -2.8125 4.4375 C-3.4003125 5.7059375 -3.4003125 5.7059375 -4 7 C-4.99 7.33 -5.98 7.66 -7 8 C-6.65930765 4.84859577 -6.41923159 3.39218439 -4.0625 1.1875 C-2 0 -2 0 0 0 Z " fill="#6681B1" transform="translate(167,240)"/>
<path d="M0 0 C0.99 0 1.98 0 3 0 C4.27253436 3.64793184 5.32829194 7.1936543 6 11 C2.90407165 7.4912812 1.25805377 4.50802601 0 0 Z " fill="#7E99C2" transform="translate(195,125)"/>
<path d="M0 0 C0.66 0 1.32 0 2 0 C2.33 1.65 2.66 3.3 3 5 C0.125 5.625 0.125 5.625 -3 6 C-3.66 5.34 -4.32 4.68 -5 4 C-4.34 4 -3.68 4 -3 4 C-3 3.34 -3 2.68 -3 2 C-2.01 2 -1.02 2 0 2 C0 1.34 0 0.68 0 0 Z " fill="#3869B0" transform="translate(209,474)"/>
<path d="M0 0 C6.75 -0.125 6.75 -0.125 9 1 C9 1.99 9 2.98 9 4 C1.25 3.125 1.25 3.125 -1 2 C-0.67 1.34 -0.34 0.68 0 0 Z " fill="#547AAE" transform="translate(113,410)"/>
<path d="M0 0 C1.875 0.125 1.875 0.125 4 1 C5.125 4 5.125 4 6 7 C6.66 7.33 7.32 7.66 8 8 C5 8 5 8 2.3125 5.6875 C0 3 0 3 0 0 Z " fill="#6A85B6" transform="translate(185,393)"/>
<path d="M0 0 C3.72114571 2.31537955 6.61229661 4.28579473 9 8 C7.35 8 5.7 8 4 8 C2.66666667 5.33333333 1.33333333 2.66666667 0 0 Z " fill="#7D9DC4" transform="translate(193,379)"/>
<path d="M0 0 C2.31 1.65 4.62 3.3 7 5 C4.00468461 5.99843846 2.82744268 6.00732761 -0.1875 5.5625 C-1.445625 5.376875 -2.70375 5.19125 -4 5 C-3.34 4.54625 -2.68 4.0925 -2 3.625 C-1.34 3.08875 -0.68 2.5525 0 2 C0 1.34 0 0.68 0 0 Z " fill="#6585C0" transform="translate(161,354)"/>
<path d="M0 0 C0 3 0 3 -1 6 C-3.9375 7.75 -3.9375 7.75 -7 9 C-7.66 8.67 -8.32 8.34 -9 8 C-6.03 5.36 -3.06 2.72 0 0 Z " fill="#7F98C4" transform="translate(318,318)"/>
<path d="M0 0 C1.258125 0.12375 2.51625 0.2475 3.8125 0.375 C4.87404297 0.47941406 4.87404297 0.47941406 5.95703125 0.5859375 C8 1 8 1 11 3 C7.7 3.33 4.4 3.66 1 4 C0.67 2.68 0.34 1.36 0 0 Z " fill="#8AA4CE" transform="translate(212,225)"/>
<path d="M0 0 C-1.15173355 2.46800047 -2.04783565 4.04783565 -4 6 C-5.32 5.01 -6.64 4.02 -8 3 C-5.53387212 -0.1151089 -3.89156016 -0.31553191 0 0 Z " fill="#5C80B7" transform="translate(345,200)"/>
<path d="M0 0 C1.32 0.66 2.64 1.32 4 2 C2.73581754 2.69965443 1.46334598 3.38434763 0.1875 4.0625 C-0.52019531 4.44535156 -1.22789062 4.82820312 -1.95703125 5.22265625 C-4 6 -4 6 -7 5 C-7 4.34 -7 3.68 -7 3 C-4.69 3 -2.38 3 0 3 C0 2.01 0 1.02 0 0 Z " fill="#7794C1" transform="translate(339,167)"/>
<path d="M0 0 C0.99 1.32 1.98 2.64 3 4 C1.93453047 6.13093906 0.70840281 7.36587557 -1 9 C-1.66 8.01 -2.32 7.02 -3 6 C-2.01 4.02 -1.02 2.04 0 0 Z " fill="#6288C5" transform="translate(254,381)"/>
<path d="M0 0 C3.91402949 1.26941497 5.79072873 2.51167694 8 6 C7.67 6.66 7.34 7.32 7 8 C6.34 8 5.68 8 5 8 C4.67 6.68 4.34 5.36 4 4 C2.35 3.67 0.7 3.34 -1 3 C-0.67 2.01 -0.34 1.02 0 0 Z " fill="#7798C4" transform="translate(179,368)"/>
<path d="M0 0 C0.66 1.32 1.32 2.64 2 4 C-0.0072908 7.0109362 -0.83884224 7.63016497 -4 9 C-2.94124926 5.59687262 -1.99097846 2.98646769 0 0 Z " fill="#6385B7" transform="translate(118,258)"/>
<path d="M0 0 C0.33 0 0.66 0 1 0 C1.33 2.64 1.66 5.28 2 8 C4.64 8 7.28 8 10 8 C10 8.33 10 8.66 10 9 C8.52168779 9.19412181 7.04230684 9.38012131 5.5625 9.5625 C4.73878906 9.66691406 3.91507813 9.77132812 3.06640625 9.87890625 C2.38449219 9.91886719 1.70257813 9.95882812 1 10 C0 9 0 9 -0.09765625 6.93359375 C-0.08605469 6.10988281 -0.07445312 5.28617188 -0.0625 4.4375 C-0.05347656 3.61121094 -0.04445312 2.78492188 -0.03515625 1.93359375 C-0.02355469 1.29550781 -0.01195312 0.65742188 0 0 Z " fill="#7E9EC9" transform="translate(182,205)"/>
<path d="M0 0 C-1.0197307 3.77300358 -1.65872662 4.80206144 -5.125 6.8125 C-6.07375 7.204375 -7.0225 7.59625 -8 8 C-6.48291727 4.46014029 -4.24676932 0 0 0 Z " fill="#7A95BE" transform="translate(308,133)"/>
<path d="M0 0 C0.66 0 1.32 0 2 0 C2 2.31 2 4.62 2 7 C-1 7 -1 7 -4 6 C-2.7260411 3.96166576 -1.38938077 1.96147874 0 0 Z " fill="#4B75B3" transform="translate(260,428)"/>
<path d="M0 0 C2.49505962 2.49505962 2.35948376 3.67328888 2.625 7.125 C2.69976562 8.03507812 2.77453125 8.94515625 2.8515625 9.8828125 C2.92503906 10.93082031 2.92503906 10.93082031 3 12 C2.67 11.01 2.34 10.02 2 9 C1.34 9 0.68 9 0 9 C0 6.03 0 3.06 0 0 Z " fill="#4D75B8" transform="translate(109,418)"/>
<path d="M0 0 C2.5 1.3125 2.5 1.3125 5 3 C5 3.99 5 4.98 5 6 C2.03 5.505 2.03 5.505 -1 5 C-0.67 3.35 -0.34 1.7 0 0 Z " fill="#597CB3" transform="translate(222,346)"/>
<path d="M0 0 C0.33 0 0.66 0 1 0 C1 4.62 1 9.24 1 14 C-2 10 -2 10 -1.75 8.125 C-1.5025 7.42375 -1.255 6.7225 -1 6 C-0.65421232 4.00211562 -0.31856451 2.00240549 0 0 Z " fill="#839EC2" transform="translate(358,272)"/>
<path d="M0 0 C1.67542976 0.28604898 3.34385343 0.61781233 5 1 C3.02 3.97 3.02 3.97 1 7 C0.34 6.67 -0.32 6.34 -1 6 C-1.042721 4.33388095 -1.04063832 2.66617115 -1 1 C-0.67 0.67 -0.34 0.34 0 0 Z " fill="#708FBF" transform="translate(218,163)"/>
<path d="M0 0 C4.43458973 1.3937282 6.87378374 3.60582235 10 7 C8.35 6.67 6.7 6.34 5 6 C5 5.34 5 4.68 5 4 C4.360625 3.896875 3.72125 3.79375 3.0625 3.6875 C2.381875 3.460625 1.70125 3.23375 1 3 C0.67 2.01 0.34 1.02 0 0 Z " fill="#6485B3" transform="translate(292,149)"/>
<path d="M0 0 C0.66 0.66 1.32 1.32 2 2 C1.34 2 0.68 2 0 2 C-0.33 2.66 -0.66 3.32 -1 4 C-1 3.34 -1 2.68 -1 2 C-2.423125 2.309375 -2.423125 2.309375 -3.875 2.625 C-4.90625 2.74875 -5.9375 2.8725 -7 3 C-7.66 2.34 -8.32 1.68 -9 1 C-5.98675805 -0.50662097 -3.31713623 -0.17770373 0 0 Z " fill="#859ACA" transform="translate(203,107)"/>
<path d="M0 0 C5.445 1.485 5.445 1.485 11 3 C11 3.33 11 3.66 11 4 C8.36 4.33 5.72 4.66 3 5 C3 4.34 3 3.68 3 3 C2.34 3 1.68 3 1 3 C0.67 2.01 0.34 1.02 0 0 Z " fill="#748FBF" transform="translate(161,473)"/>
<path d="M0 0 C1.953125 0.7109375 1.953125 0.7109375 4 2 C4.609375 4.1640625 4.609375 4.1640625 4.75 6.625 C4.80671875 7.44226563 4.8634375 8.25953125 4.921875 9.1015625 C4.94765625 9.72804688 4.9734375 10.35453125 5 11 C3.33167423 8.49751135 2.37618326 6.58850813 1.375 3.8125 C1.11460937 3.09707031 0.85421875 2.38164062 0.5859375 1.64453125 C0.39257812 1.10183594 0.19921875 0.55914062 0 0 Z " fill="#7590BA" transform="translate(237,388)"/>
<path d="M0 0 C0.66 0.33 1.32 0.66 2 1 C0.08864614 4.53600465 -1.62642766 6.78972846 -5 9 C-4.690625 8.4225 -4.38125 7.845 -4.0625 7.25 C-2.9327131 5.0661063 -2.9327131 5.0661063 -2.5 2.8125 C-2.335 2.214375 -2.17 1.61625 -2 1 C-1.34 0.67 -0.68 0.34 0 0 Z " fill="#4972AA" transform="translate(307,327)"/>
<path d="M0 0 C0.66 0.99 1.32 1.98 2 3 C1.125 5.6875 1.125 5.6875 0 8 C-1.32 7.67 -2.64 7.34 -4 7 C-2.68 4.69 -1.36 2.38 0 0 Z " fill="#7A96C2" transform="translate(333,299)"/>
<path d="M0 0 C0.66 0 1.32 0 2 0 C1.67 1.98 1.34 3.96 1 6 C0.01 6.33 -0.98 6.66 -2 7 C-1.125 1.125 -1.125 1.125 0 0 Z " fill="#6183B2" transform="translate(336,294)"/>
<path d="M0 0 C0.66 0 1.32 0 2 0 C1.835 0.598125 1.67 1.19625 1.5 1.8125 C0.8885876 4.11344336 0.8885876 4.11344336 1 7 C0.01 7.33 -0.98 7.66 -2 8 C-1.125 1.125 -1.125 1.125 0 0 Z " fill="#4468A4" transform="translate(154,255)"/>
<path d="M0 0 C0.66 0.33 1.32 0.66 2 1 C1.34 2.32 0.68 3.64 0 5 C-0.66 5 -1.32 5 -2 5 C-2 5.66 -2 6.32 -2 7 C-3.32 6.67 -4.64 6.34 -6 6 C-4.02 4.02 -2.04 2.04 0 0 Z " fill="#7A8EB0" transform="translate(208,152)"/>
<path d="M0 0 C0.66 1.65 1.32 3.3 2 5 C0.68 5 -0.64 5 -2 5 C-2 4.01 -2 3.02 -2 2 C-2.66 1.67 -3.32 1.34 -4 1 C-2 0 -2 0 0 0 Z " fill="#5278BA" transform="translate(213,472)"/>
<path d="M0 0 C0 0.66 0 1.32 0 2 C-1.62626404 3.38232443 -3.2925002 4.71937515 -5 6 C-6.32 5.34 -7.64 4.68 -9 4 C-2.25 0 -2.25 0 0 0 Z " fill="#7494BC" transform="translate(222,467)"/>
<path d="M0 0 C0.33 0.66 0.66 1.32 1 2 C1.66 2.33 2.32 2.66 3 3 C0.82575883 5.50037734 -0.73045798 6.43628586 -4 7 C-3.67 6.01 -3.34 5.02 -3 4 C-2.34 4 -1.68 4 -1 4 C-0.67 2.68 -0.34 1.36 0 0 Z " fill="#4F75B3" transform="translate(223,465)"/>
<path d="M0 0 C0.99 0.33 1.98 0.66 3 1 C1.35 2.98 -0.3 4.96 -2 7 C-2.33 5.68 -2.66 4.36 -3 3 C-2.01 2.67 -1.02 2.34 0 2 C0 1.34 0 0.68 0 0 Z " fill="#6384B4" transform="translate(245,464)"/>
<path d="M0 0 C3.3 1.65 6.6 3.3 10 5 C9.01 5.495 9.01 5.495 8 6 C4.4375 4.75 4.4375 4.75 1 3 C0.67 2.01 0.34 1.02 0 0 Z " fill="#6A87B4" transform="translate(172,152)"/>
<path d="M0 0 C0.33 0.99 0.66 1.98 1 3 C-0.98 3.99 -2.96 4.98 -5 6 C-5.66 5.34 -6.32 4.68 -7 4 C-4.69 2.68 -2.38 1.36 0 0 Z " fill="#718FC1" transform="translate(219,145)"/>
<path d="M0 0 C0 0.66 0 1.32 0 2 C-0.99 2 -1.98 2 -3 2 C-3 2.66 -3 3.32 -3 4 C-3.99 4.33 -4.98 4.66 -6 5 C-6.66 4.67 -7.32 4.34 -8 4 C-8 3.34 -8 2.68 -8 2 C-2.25 0 -2.25 0 0 0 Z " fill="#6387B7" transform="translate(209,474)"/>
<path d="M0 0 C0.66 0.33 1.32 0.66 2 1 C1.1875 3.4375 1.1875 3.4375 0 6 C-0.99 6.33 -1.98 6.66 -3 7 C-2.38722388 4.03824877 -1.74627478 2.61941217 0 0 Z " fill="#6588B8" transform="translate(251,456)"/>
<path d="M0 0 C0.66 0 1.32 0 2 0 C0.75023244 3.65316671 0.32901247 4.78065836 -3 7 C-2.25 2.25 -2.25 2.25 0 0 Z " fill="#8299C3" transform="translate(339,320)"/>
<path d="M0 0 C1.32 0 2.64 0 4 0 C4.33 2.64 4.66 5.28 5 8 C2.74754119 5.31158141 1.11786042 3.35358125 0 0 Z " fill="#698ABF" transform="translate(298,178)"/>
<path d="M0 0 C0.99 1.32 1.98 2.64 3 4 C2.34 4 1.68 4 1 4 C1 4.99 1 5.98 1 7 C0.34 7 -0.32 7 -1 7 C-1.625 5.1875 -1.625 5.1875 -2 3 C-1.34 2.01 -0.68 1.02 0 0 Z " fill="#5C80B1" transform="translate(192,171)"/>
<path d="M0 0 C0.66 0.33 1.32 0.66 2 1 C2 1.66 2 2.32 2 3 C2.99 3.33 3.98 3.66 5 4 C4.67 4.66 4.34 5.32 4 6 C3.01 6 2.02 6 1 6 C0.34 4.35 -0.32 2.7 -1 1 C-0.67 0.67 -0.34 0.34 0 0 Z " fill="#6281B3" transform="translate(193,119)"/>
<path d="M0 0 C0.66 0 1.32 0 2 0 C2.33 1.32 2.66 2.64 3 4 C1.68 4.99 0.36 5.98 -1 7 C-1.33 6.01 -1.66 5.02 -2 4 C-1.34 4 -0.68 4 0 4 C0 2.68 0 1.36 0 0 Z " fill="#4F70AB" transform="translate(258,121)"/>
<path d="M0 0 C0.33 0 0.66 0 1 0 C1.4726477 8.19256018 1.4726477 8.19256018 -0.5 11.5625 C-0.995 12.036875 -1.49 12.51125 -2 13 C-2.042721 11.33388095 -2.04063832 9.66617115 -2 8 C-1.67 7.67 -1.34 7.34 -1 7 C-0.63239269 4.67182036 -0.29758419 2.3381615 0 0 Z " fill="#778BB2" transform="translate(315,111)"/>
<path d="M0 0 C0.33 1.65 0.66 3.3 1 5 C-1.91517292 3.92598892 -3.77810176 3.22189824 -6 1 C-3.92446352 0.4465236 -2.15634036 0 0 0 Z " fill="#7692BA" transform="translate(145,480)"/>
<path d="M0 0 C1.65 0 3.3 0 5 0 C3.71937515 1.7074998 2.38232443 3.37373596 1 5 C0.34 5 -0.32 5 -1 5 C-0.67 3.35 -0.34 1.7 0 0 Z " fill="#708DBD" transform="translate(274,375)"/>
<path d="M0 0 C0.66 0.33 1.32 0.66 2 1 C2 2.32 2 3.64 2 5 C0.35 4.67 -1.3 4.34 -3 4 C-2.01 2.68 -1.02 1.36 0 0 Z " fill="#3568AF" transform="translate(245,370)"/>
<path d="M0 0 C3.465 1.98 3.465 1.98 7 4 C7 4.33 7 4.66 7 5 C5.35 5 3.7 5 2 5 C1.34 3.35 0.68 1.7 0 0 Z " fill="#6B88B6" transform="translate(171,362)"/>
<path d="M0 0 C0.66 1.32 1.32 2.64 2 4 C0.35 5.32 -1.3 6.64 -3 8 C-2.37240135 5.07120629 -1.41377341 2.63904371 0 0 Z " fill="#6B8CBC" transform="translate(290,359)"/>
<path d="M0 0 C2.9375 0.375 2.9375 0.375 6 1 C6.33 1.66 6.66 2.32 7 3 C4.69 3 2.38 3 0 3 C0 2.01 0 1.02 0 0 Z " fill="#7C94BA" transform="translate(164,200)"/>
<path d="M0 0 C0.66 0 1.32 0 2 0 C2 2.31 2 4.62 2 7 C1.01 7.33 0.02 7.66 -1 8 C-0.67 5.36 -0.34 2.72 0 0 Z " fill="#728BBB" transform="translate(354,151)"/>
</svg>
