<?xml version="1.0" encoding="UTF-8"?>
<svg version="1.1" xmlns="http://www.w3.org/2000/svg" width="509" height="549">
<path d="M0 0 C4.04427713 1.57224825 6.50576342 4.45170109 9.3125 7.625 C9.79960449 8.16624512 10.28670898 8.70749023 10.78857422 9.26513672 C13.9803864 12.82088108 17.13767812 16.40749735 20.265625 20.01953125 C22.27264538 22.31133155 24.32402851 24.55996752 26.375 26.8125 C29.42858867 30.18940982 32.34429205 33.63217132 35.1875 37.1875 C39.49535504 42.52139407 44.13859865 47.47515486 48.84643555 52.4519043 C52.98543211 56.84997201 56.82709615 61.40262801 60.59375 66.125 C63.59742005 69.71380058 66.78474154 73.1012067 70 76.5 C74.77178383 81.54416896 79.26183993 86.69394856 83.59375 92.125 C86.59742005 95.71380058 89.78474154 99.1012067 93 102.5 C97.77178383 107.54416896 102.26183993 112.69394856 106.59375 118.125 C109.59742005 121.71380058 112.78474154 125.1012067 116 128.5 C120.77178383 133.54416896 125.26183993 138.69394856 129.59375 144.125 C132.59742005 147.71380058 135.78474154 151.1012067 139 154.5 C143.77178383 159.54416896 148.26183993 164.69394856 152.59375 170.125 C155.59742005 173.71380058 158.78474154 177.1012067 162 180.5 C165.99401455 184.72200269 169.87289241 188.95258153 173.5 193.5 C178.27996646 199.48838495 183.53219357 204.99684413 188.78125 210.5703125 C192.73316017 214.76808922 196.52345773 219.08290505 200.25439453 223.47753906 C201.7304594 225.21559391 203.20836838 226.95205423 204.6875 228.6875 C205.19982178 229.28868652 205.71214355 229.88987305 206.23999023 230.50927734 C209.79694909 234.65878655 213.45449918 238.69618486 217.1875 242.6875 C221.55175567 247.35413874 225.63922037 252.1628882 229.62109375 257.1640625 C231.43626303 259.32795889 233.26921092 261.36566733 235.22265625 263.3984375 C235.77566406 263.97658203 236.32867187 264.55472656 236.8984375 265.15039062 C237.98529656 266.27679503 239.08260544 267.39323455 240.19140625 268.49804688 C242.3382239 270.72592925 243.8636091 272.56754104 244.80078125 275.5390625 C243.46732526 279.63700041 240.13252361 281.22760045 236.625 283.5 C235.05251163 284.56251004 233.48092527 285.62635604 231.91015625 286.69140625 C231.09562988 287.23684082 230.28110352 287.78227539 229.44189453 288.34423828 C225.58746347 290.95779072 221.82677576 293.69641794 218.0625 296.4375 C216.55232393 297.53158218 215.04190597 298.62533055 213.53125 299.71875 C212.78230469 300.26144531 212.03335937 300.80414063 211.26171875 301.36328125 C209.02060267 302.98509064 206.77648685 304.60265132 204.53125 306.21875 C196.73761042 311.83078384 188.97402448 317.47995177 181.25 323.1875 C174.10065252 328.46963165 166.90641125 333.68058653 159.65625 338.82324219 C157.43624338 340.40054642 155.22228903 341.98623716 153.00834656 343.57203674 C150.65868248 345.25341178 148.30574247 346.93016577 145.95278931 348.60693359 C144.68594843 349.51066318 143.41992683 350.41554274 142.15487671 351.32177734 C131.39282465 359.02795989 120.44175167 366.40323055 109.3637085 373.6463623 C90.54106869 385.95652227 71.85241012 398.45709281 53.23291016 411.07202148 C52.35656921 411.66528732 51.48022827 412.25855316 50.57733154 412.86979675 C48.93706838 413.98057887 47.29757996 415.09250619 45.65899658 416.20576477 C44.57845001 416.93777351 44.57845001 416.93777351 43.47607422 417.68457031 C42.84933807 418.11006165 42.22260193 418.53555298 41.57687378 418.97393799 C40 420 40 420 38 421 C40.03626745 441.72256701 42.12650693 462.43823548 44.359375 483.140625 C44.45746964 484.05067795 44.55556427 484.9607309 44.65663147 485.89836121 C45.45547104 493.3050864 46.25764112 500.71144996 47.06109619 508.11767578 C47.67134762 513.74316006 48.27996315 519.3688159 48.88611603 524.99474335 C49.16589333 527.58523989 49.44811184 530.17546293 49.73040771 532.76568604 C49.89950625 534.33368522 50.06847913 535.90169796 50.23730469 537.46972656 C50.35411339 538.53208527 50.35411339 538.53208527 50.47328186 539.61590576 C50.81115358 542.77732068 51 545.81358424 51 549 C-35.79 549 -122.58 549 -212 549 C-213.77616976 543.67149073 -215.42467569 538.67198695 -216.74804688 533.27246094 C-217.21909599 531.36269722 -217.21909599 531.36269722 -217.69966125 529.41435242 C-218.03940022 528.02103703 -218.37909482 526.62771082 -218.71875 525.234375 C-219.0888233 523.72853786 -219.45925197 522.22278802 -219.83000183 520.71711731 C-220.63337791 517.45173239 -221.43452646 514.18581198 -222.23397827 510.91946411 C-223.51757831 505.6756988 -224.8066971 500.43330033 -226.09692383 495.19116211 C-226.55068188 493.34733765 -227.00443237 491.50351132 -227.45817566 489.65968323 C-227.68823996 488.72481142 -227.91830425 487.78993961 -228.15534019 486.82673836 C-228.87416962 483.90496155 -229.5925244 480.98306843 -230.31074524 478.06114197 C-235.83127034 455.60390261 -241.37656883 433.15279168 -246.93140221 410.70401573 C-248.7669531 403.28580043 -250.60016121 395.8670116 -252.4315443 388.4477663 C-253.58068283 383.7944929 -254.73182718 379.14171747 -255.8835392 374.48908043 C-256.42416649 372.30340265 -256.96398007 370.11752343 -257.50295067 367.93143654 C-258.24155443 364.93624657 -258.98307001 361.94179248 -259.7253418 358.94750977 C-259.94283836 358.06255199 -260.16033493 357.17759422 -260.3844223 356.26581955 C-261.38632906 352.02645963 -261.38632906 352.02645963 -263 348 C-263.66 348.33 -264.32 348.66 -265 349 C-265 344.05 -265 339.1 -265 334 C-263.22293791 336.66559313 -262.12451727 339.0280615 -261 342 C-252.55316704 331.35197964 -244.30166256 320.56067159 -236.08056641 309.73779297 C-232.72472588 305.32188172 -229.36210714 300.91114069 -226 296.5 C-224.66663232 294.75002617 -223.33329903 293.00002614 -222 291.25 C-214 280.75 -214 280.75 -211.99975586 278.12475586 C-210.66713824 276.37564439 -209.33461862 274.62645825 -208.00219727 272.87719727 C-204.65871529 268.4879836 -201.31351262 264.10010178 -197.96484375 259.71484375 C-191.39620884 251.10912069 -184.8546811 242.4854463 -178.375 233.8125 C-173.0212871 226.64828168 -167.57662185 219.56281146 -162.06689453 212.51806641 C-157.72323253 206.95556372 -153.46962704 201.33120776 -149.24829102 195.67553711 C-145.48097196 190.63050192 -141.65506666 185.6334664 -137.80859375 180.6484375 C-128.90935601 169.10330364 -120.09935948 157.49022855 -111.375 145.8125 C-106.02129674 138.64827418 -100.5766218 131.56281139 -95.06689453 124.51806641 C-90.72323253 118.95556372 -86.46962704 113.33120776 -82.24829102 107.67553711 C-78.48097196 102.63050192 -74.65506666 97.6334664 -70.80859375 92.6484375 C-61.90935601 81.10330364 -53.09935948 69.49022855 -44.375 57.8125 C-39.02129674 50.64827418 -33.5766218 43.56281139 -28.06689453 36.51806641 C-23.73450873 30.97000405 -19.49133844 25.36069302 -15.28125 19.71948242 C-11.98881696 15.31005355 -8.66710911 10.92482979 -5.3125 6.5625 C-4.67876465 5.73721802 -4.67876465 5.73721802 -4.03222656 4.89526367 C-1.12834625 1.12834625 -1.12834625 1.12834625 0 0 Z " fill="#FDFEFE" transform="translate(265,0)"/>
<path d="M0 0 C1.17790248 0.96562116 2.34486035 1.94476093 3.5 2.9375 C4.16128906 3.45699219 4.82257813 3.97648437 5.50390625 4.51171875 C18.86200614 15.38576971 27.16104151 33.01072258 29.5 49.9375 C30.43260336 60.38695094 29.32770027 70.64036722 27.5 80.9375 C28.31082031 81.32679688 29.12164062 81.71609375 29.95703125 82.1171875 C46.32232774 90.3855678 57.20511451 102.47643438 63.18359375 119.93359375 C67.29726468 134.94140009 64.23585428 151.09924584 56.953125 164.58984375 C46.06874291 182.17455782 29.12588114 194.54238053 12.6484375 206.4453125 C0.10860708 215.52605147 -11.68386103 224.55052113 -21.01171875 237.07421875 C-22.5 238.9375 -22.5 238.9375 -24.5 239.9375 C-27.875 240.3125 -27.875 240.3125 -31.5 239.9375 C-34 237.875 -34 237.875 -35.5 234.9375 C-35.98966443 228.69427853 -32.85675928 225.21709732 -28.921875 220.60546875 C-18.44179611 209.06047862 -6.94497415 199.90183138 5.59838867 190.73828125 C33.15274157 171.30646662 33.15274157 171.30646662 47.5 141.9375 C48.72627993 128.93287706 45.86375206 118.06301801 37.5 107.9375 C29.36691933 99.45736765 21.38334272 94.92159198 9.64575195 94.59399414 C-5.46101904 94.41416822 -15.62398615 98.31508654 -26.55078125 108.9296875 C-31.5501897 114.23003122 -35.19497218 120.04597801 -38.8359375 126.3125 C-40.5 128.9375 -40.5 128.9375 -42.5 129.9375 C-46.17341081 130.42728811 -47.89116214 130.37461436 -50.9375 128.1875 C-53.35326471 125.48887676 -54.94598734 122.4115779 -56.6875 119.25 C-63.55618088 107.21500526 -72.76589064 100.24755851 -85.796875 95.81640625 C-97.54504018 93.02807591 -108.98106614 93.71186838 -119.4765625 99.828125 C-129.15049323 106.577379 -134.76831449 114.74244348 -138.5 125.9375 C-139.63183934 143.15630179 -135.74014046 154.77402647 -124.3125 167.875 C-115.98990275 176.83143744 -107.04623385 184.12776329 -97.12207031 191.19287109 C-86.02047167 199.09897814 -76.0244786 207.95173023 -66.17724609 217.34814453 C-64.76585358 218.68557761 -63.33259994 219.99988656 -61.89453125 221.30859375 C-47.15107162 235.1126471 -37.16125651 255.11367383 -36.18359375 275.3046875 C-35.83782674 287.13760306 -36.68245533 297.69764716 -40.5 308.9375 C-40.86222656 310.01257813 -41.22445312 311.08765625 -41.59765625 312.1953125 C-44.41901388 319.6743012 -48.48006473 325.75352177 -53.5 331.9375 C-54.1909375 332.7934375 -54.881875 333.649375 -55.59375 334.53125 C-68.17283832 349.29800585 -86.93489652 360.28138682 -106.5 361.9375 C-131.22056357 363.09498458 -131.22056357 363.09498458 -142.5 358.9375 C-143.304375 358.68226563 -144.10875 358.42703125 -144.9375 358.1640625 C-164.63901777 351.28116046 -181.06264608 335.22894686 -190.5 316.9375 C-194.6544454 307.97264414 -197.56624065 298.80661803 -198.5 288.9375 C-198.59410156 288.10347656 -198.68820313 287.26945312 -198.78515625 286.41015625 C-199.04417567 282.41860054 -198.78691987 279.69046422 -196.4375 276.375 C-193.5 273.9375 -193.5 273.9375 -189.9375 273.3125 C-185.88791801 274.04878763 -184.94565474 274.68871712 -182.5 277.9375 C-182.01100576 280.62257617 -181.72392153 283.04793079 -181.5625 285.75 C-179.99492333 303.01374964 -173.12653582 317.88178406 -160.5 329.9375 C-147.58624824 340.45510406 -133.97292598 345.53516758 -117.375 345.5 C-116.18592041 345.49758301 -114.99684082 345.49516602 -113.77172852 345.49267578 C-103.90415212 345.28722716 -96.19194759 343.50835571 -87.5 338.9375 C-86.54222656 338.44636719 -85.58445312 337.95523437 -84.59765625 337.44921875 C-68.5751775 328.51036218 -59.20006847 314.01826176 -54.1262207 296.6652832 C-53.06693481 292.05109167 -52.9687983 287.5311567 -53 282.8125 C-53.00499512 281.81057617 -53.00999023 280.80865234 -53.01513672 279.77636719 C-53.47118656 260.13162693 -62.56475037 245.11003438 -75.5 230.9375 C-76.59828125 229.7309375 -76.59828125 229.7309375 -77.71875 228.5 C-86.36333457 219.46834448 -96.70151882 212.26674055 -106.6875 204.8125 C-113.10394583 200.0213502 -119.41236693 195.14520971 -125.5 189.9375 C-126.49773437 189.08671875 -127.49546875 188.2359375 -128.5234375 187.359375 C-142.3445535 175.30450801 -154.05661596 159.67136697 -155.68017578 140.84863281 C-156.28387942 130.89076847 -155.72313063 122.13366296 -151.5 112.9375 C-151.07589844 112.00550781 -150.65179688 111.07351563 -150.21484375 110.11328125 C-143.33395159 96.37066375 -132.42993907 86.99960311 -118.5 80.9375 C-117.7884375 80.61523438 -117.076875 80.29296875 -116.34375 79.9609375 C-100.91792905 74.14909651 -84.03296326 78.03112912 -69.48828125 84.21875 C-60.19810951 88.77769305 -51.77405873 96.04556562 -46.5 104.9375 C-45.84 104.9375 -45.18 104.9375 -44.5 104.9375 C-42.93135918 103.3867093 -42.93135918 103.3867093 -41.3125 101.375 C-40.68085938 100.64152344 -40.04921875 99.90804687 -39.3984375 99.15234375 C-38.25265695 97.81559977 -37.11080429 96.47545484 -35.9765625 95.12890625 C-28.78794009 87.22871969 -17.84218696 81.42538195 -7.5 78.9375 C-6.74460937 78.751875 -5.98921875 78.56625 -5.2109375 78.375 C-1.83769448 77.83061496 1.39721917 77.84308149 4.8125 77.875 C6.06675781 77.88402344 7.32101562 77.89304687 8.61328125 77.90234375 C9.56589844 77.91394531 10.51851562 77.92554688 11.5 77.9375 C13.80071274 58.17602092 13.01258839 39.63816702 0.46484375 23.28515625 C-9.20266344 11.94672189 -22.43493272 3.421337 -37.5 1.9375 C-55.16136241 0.91046335 -70.04165641 4.42007163 -83.8125 16.1875 C-97.46968156 29.31258358 -102.02735696 43.58441132 -103.5 61.9375 C-107.48750472 63.13814402 -111.28729201 64.17940388 -115.4375 64.5625 C-116.59572266 64.67464844 -116.59572266 64.67464844 -117.77734375 64.7890625 C-118.34582031 64.83804688 -118.91429687 64.88703125 -119.5 64.9375 C-120.47299991 42.85580761 -114.39163953 24.26578437 -99.41015625 7.875 C-72.60290039 -19.95048104 -30.85123706 -22.51959183 0 0 Z " fill="#396AB5" transform="translate(313.5,161.0625)"/>
<path d="M0 0 C5.40919811 0.88514151 5.40919811 0.88514151 7.4375 3.5625 C8.9620335 11.05812303 5.96484399 16.27274075 2.45996094 22.71362305 C-4.14115828 34.85806654 -5.11779315 50.9328552 -1.46484375 64.3046875 C3.06838092 77.94888284 11.5553669 88.43841593 21.4375 98.5625 C21.97536133 99.12445068 22.51322266 99.68640137 23.06738281 100.26538086 C27.16396713 104.4758877 31.48647661 108.11053971 36.1875 111.625 C36.91412842 112.17591309 37.64075684 112.72682617 38.3894043 113.29443359 C42.34485915 116.28217634 46.33287892 119.22143425 50.34765625 122.12890625 C59.56895408 128.81299663 68.35970665 135.50987112 76.4375 143.5625 C77.18257813 144.284375 77.92765625 145.00625 78.6953125 145.75 C87.19783171 154.54347994 92.9173032 166.04103845 92.7109375 178.40234375 C92.27323665 181.86018049 91.13772685 183.41616583 88.4375 185.5625 C84.9375 186.125 84.9375 186.125 81.4375 185.5625 C77.80393263 182.69564868 76.8493483 180.35604449 76 175.875 C71.91941734 157.84145726 57.64339041 148.36757695 43.54296875 137.87890625 C38.12437529 133.83711264 32.77336696 129.71261875 27.4375 125.5625 C26.58027344 124.91410156 25.72304687 124.26570313 24.83984375 123.59765625 C5.24116429 108.30038712 -15.59887782 87.76076132 -19.31640625 61.9296875 C-20.83440729 41.15957801 -19.34076379 20.16631271 -6.02734375 3.09375 C-3.5625 0.5625 -3.5625 0.5625 0 0 Z " fill="#3969B4" transform="translate(135.5625,265.4375)"/>
<path d="M0 0 C1.69189453 -0.02320313 1.69189453 -0.02320313 3.41796875 -0.046875 C11.57374889 -0.00826776 11.57374889 -0.00826776 15.74609375 2.28125 C17.59168369 4.61598292 18.15992916 5.56566307 18.0625 8.5 C18.06443359 9.49 18.06443359 9.49 18.06640625 10.5 C17.23974597 13.41896595 15.84007812 14.59537016 13.5 16.5 C9.06105922 17.32990379 4.57032628 17.10260102 0.0625 17.0625 C-1.16533203 17.08634766 -2.39316406 17.11019531 -3.65820312 17.13476562 C-13.68564271 17.11838984 -13.68564271 17.11838984 -16.83984375 14.1875 C-18.5 11.5 -18.5 11.5 -18.625 7.9375 C-15.6625365 -1.11447182 -8.14792613 -0.11174299 0 0 Z " fill="#396BB6" transform="translate(164.5,212.5)"/>
<path d="M0 0 C1.7634375 -0.02900391 1.7634375 -0.02900391 3.5625 -0.05859375 C13.13240743 -0.00421928 13.13240743 -0.00421928 16.2734375 2.94140625 C18.56023575 6.49577366 18.7537228 8.47952463 18 12.625 C13.33577635 17.35707461 9.50153636 17.16890672 3.15820312 17.22070312 C1.93037109 17.20974609 0.70253906 17.19878906 -0.5625 17.1875 C-1.79419922 17.21134766 -3.02589844 17.23519531 -4.29492188 17.25976562 C-5.47763672 17.25783203 -6.66035156 17.25589844 -7.87890625 17.25390625 C-8.9572876 17.25463135 -10.03566895 17.25535645 -11.14672852 17.25610352 C-14 16.625 -14 16.625 -16.34741211 14.27319336 C-18.39306496 10.99513212 -18.71190446 9.42182379 -18 5.625 C-13.62050471 -1.1081016 -7.4264669 -0.12214584 0 0 Z " fill="#3E6EB6" transform="translate(372,212.375)"/>
<path d="M0 0 C3.4375 0.875 3.4375 0.875 5.375 1.9375 C7.13895912 5.15413134 6.98806871 8.34788452 6.4375 11.875 C5.02022756 15.35706411 3.15065429 18.48800809 1.1875 21.6875 C0.69636719 22.53248047 0.20523437 23.37746094 -0.30078125 24.24804688 C-4.62481834 31.50666381 -4.62481834 31.50666381 -8.5625 33.875 C-11.95935818 33.75581199 -14.50250615 33.45628695 -17.5 31.8125 C-19.26395912 28.59586866 -19.11306871 25.40211548 -18.5625 21.875 C-17.14522756 18.39293589 -15.27565429 15.26199191 -13.3125 12.0625 C-12.82136719 11.21751953 -12.33023437 10.37253906 -11.82421875 9.50195312 C-6.03760307 -0.21184572 -6.03760307 -0.21184572 0 0 Z " fill="#3D6CB4" transform="translate(326.5625,114.125)"/>
<path d="M0 0 C1.9375 1.125 1.9375 1.125 3 3 C3.5 6.375 3.5 6.375 3 10 C-0.78834537 14.51800722 -5.36013814 17.35355616 -10.375 20.3125 C-11.46941406 20.9940918 -11.46941406 20.9940918 -12.5859375 21.68945312 C-17.20803595 24.43382408 -20.47524414 25.69319396 -26 25 C-28.4375 23.4375 -28.4375 23.4375 -30 21 C-30.6875 17.625 -30.6875 17.625 -30 14 C-25.85545382 9.23377189 -20.39247178 6.26505383 -15 3.0625 C-14.32388672 2.64822754 -13.64777344 2.23395508 -12.95117188 1.80712891 C-8.27290823 -0.85757558 -5.40743512 -1.42799601 0 0 Z " fill="#3D6BB3" transform="translate(372,157)"/>
<path d="M0 0 C3.37004585 1.46351581 6.47663348 3.30090191 9.625 5.1875 C10.470625 5.67025391 11.31625 6.15300781 12.1875 6.65039062 C16.58951555 9.23674834 20.3142702 11.51141842 23 16 C23 19.77910616 22.83289714 22.00693033 20.375 24.9375 C17.04709945 26.42629761 14.63021282 26.29026624 11 26 C7.68359375 24.390625 7.68359375 24.390625 4.4375 22.25 C3.36371094 21.55390625 2.28992188 20.8578125 1.18359375 20.140625 C0.13300781 19.43421875 -0.91757813 18.7278125 -2 18 C-3.62228516 16.94039062 -3.62228516 16.94039062 -5.27734375 15.859375 C-8 14 -8 14 -10 12 C-10.67386609 5.03671706 -10.67386609 5.03671706 -8.375 1.5 C-5.17208557 -0.52289332 -3.7875456 -0.45844726 0 0 Z " fill="#3A69B3" transform="translate(172,156)"/>
<path d="M0 0 C4.38742137 1.1654088 6.3601004 4.9718739 8.578125 8.6484375 C9.47599989 10.23028178 10.36644421 11.81636327 11.25 13.40625 C11.70890625 14.19644531 12.1678125 14.98664063 12.640625 15.80078125 C15.0660138 20.13905109 16.8328361 23.41962295 16 28.53125 C13.9375 31.46875 13.9375 31.46875 11 33.53125 C7.5625 33.84375 7.5625 33.84375 4 32.53125 C-0.63599157 28.39024711 -3.40352571 22.22844144 -6.375 16.84375 C-6.73327881 16.20228027 -7.09155762 15.56081055 -7.46069336 14.89990234 C-9.36251296 11.32464861 -10.59570914 8.59950756 -10 4.53125 C-7.29956253 0.36807556 -4.62778717 0.07230917 0 0 Z " fill="#3E6BB2" transform="translate(213,114.46875)"/>
<path d="M0 0 C3.5 0.5625 3.5 0.5625 5.68554688 2.72265625 C7.77079335 5.98632511 8.0144617 7.72517415 8.03125 11.5625 C8.03640625 12.696875 8.0415625 13.83125 8.046875 15 C8.03140625 16.175625 8.0159375 17.35125 8 18.5625 C8.01546875 19.738125 8.0309375 20.91375 8.046875 22.125 C8.04171875 23.259375 8.0365625 24.39375 8.03125 25.5625 C8.02673828 26.59375 8.02222656 27.625 8.01757812 28.6875 C7.36604812 32.30656477 6.09738413 33.99529102 3.5 36.5625 C0 37.125 0 37.125 -3.5 36.5625 C-6.40163241 34.38951701 -7.38733676 33.20701879 -8.01757812 29.6015625 C-8.02208984 28.47492188 -8.02660156 27.34828125 -8.03125 26.1875 C-8.03640625 24.95515625 -8.0415625 23.7228125 -8.046875 22.453125 C-8.03140625 21.16921875 -8.0159375 19.8853125 -8 18.5625 C-8.01546875 17.27859375 -8.0309375 15.9946875 -8.046875 14.671875 C-8.04171875 13.43953125 -8.0365625 12.2071875 -8.03125 10.9375 C-8.02673828 9.81085938 -8.02222656 8.68421875 -8.01757812 7.5234375 C-7.14286265 2.5194048 -4.90496211 0.78829748 0 0 Z " fill="#3B6AB4" transform="translate(268.5,98.4375)"/>
<path d="M0 0 C1.14919922 0.00708984 2.29839844 0.01417969 3.48242188 0.02148438 C4.62775391 0.00150391 5.77308594 -0.01847656 6.953125 -0.0390625 C8.05462891 -0.03841797 9.15613281 -0.03777344 10.29101562 -0.03710938 C11.80199829 -0.03988892 11.80199829 -0.03988892 13.34350586 -0.04272461 C16.7046292 0.58150571 17.89264813 1.87555117 20.04492188 4.45898438 C19.05492187 4.95398438 19.05492187 4.95398438 18.04492188 5.45898438 C18.04492188 4.79898438 18.04492188 4.13898438 18.04492188 3.45898438 C8.14492187 3.45898438 -1.75507813 3.45898438 -11.95507812 3.45898438 C-7.91750749 -0.57858626 -5.49496333 0.04184799 0 0 Z " fill="#5F84B8" transform="translate(160.955078125,212.541015625)"/>
<path d="M0 0 C5.40919811 0.88514151 5.40919811 0.88514151 7.4375 3.5625 C7.76506713 6.59115342 7.66643504 9.52911073 7.4375 12.5625 C6.4475 13.0575 6.4475 13.0575 5.4375 13.5625 C5.1075 9.9325 4.7775 6.3025 4.4375 2.5625 C0.61297371 3.17442421 -1.64906283 3.55215189 -4.29296875 6.4765625 C-5.32780763 7.92278177 -6.33217428 9.39142314 -7.30078125 10.8828125 C-7.71714844 11.43710937 -8.13351563 11.99140625 -8.5625 12.5625 C-9.2225 12.5625 -9.8825 12.5625 -10.5625 12.5625 C-8.95747636 6.4342279 -6.76488842 1.06814028 0 0 Z " fill="#5375A8" transform="translate(135.5625,265.4375)"/>
<path d="M0 0 C3.40939515 3.40939515 3.13954556 6.92725983 3.18945312 11.63671875 C3.18880859 12.33410156 3.18816406 13.03148437 3.1875 13.75 C3.18814453 14.46285156 3.18878906 15.17570312 3.18945312 15.91015625 C3.13882433 20.94542014 2.58649873 25.2405038 1 30 C0.67 30 0.34 30 0 30 C0 20.1 0 10.2 0 0 Z " fill="#4E74B0" transform="translate(375,282)"/>
<path d="M0 0 C0.66 0.33 1.32 0.66 2 1 C0.60919892 2.58775549 -0.78788404 4.17000939 -2.1875 5.75 C-2.96480469 6.63171875 -3.74210938 7.5134375 -4.54296875 8.421875 C-6.88455246 10.87886268 -9.30158265 12.94862766 -12 15 C-12.66 14.67 -13.32 14.34 -14 14 C-9.67106815 8.81580806 -5.23435005 4.27293882 0 0 Z " fill="#4E75B1" transform="translate(183,248)"/>
<path d="M0 0 C-1.98205035 4.85994267 -5.83608502 7.84009167 -9.58984375 11.3671875 C-12.14385606 13.91567718 -12.14385606 13.91567718 -13.62890625 17.2578125 C-14.30759766 18.61519531 -14.30759766 18.61519531 -15 20 C-15.99 20.33 -16.98 20.66 -18 21 C-15.83115054 14.96954053 -7.23760318 0 0 0 Z " fill="#E3EEF6" transform="translate(234,174)"/>
<path d="M0 0 C0.66 0.33 1.32 0.66 2 1 C0.09042286 3.13176064 -1.82708763 5.2553245 -3.75 7.375 C-4.55824219 8.27992188 -4.55824219 8.27992188 -5.3828125 9.203125 C-5.91132813 9.78320312 -6.43984375 10.36328125 -6.984375 10.9609375 C-7.46616211 11.49509277 -7.94794922 12.02924805 -8.44433594 12.57958984 C-10.16979726 14.1550346 -11.87547258 15.04997548 -14 16 C-14 16.66 -14 17.32 -14 18 C-14.66 17.67 -15.32 17.34 -16 17 C-11.07037669 10.7178043 -6.2879759 4.95010869 0 0 Z " fill="#4F74AE" transform="translate(223,161)"/>
<path d="M0 0 C0.33 0 0.66 0 1 0 C1.10957031 0.79921875 1.21914062 1.5984375 1.33203125 2.421875 C2.32883665 9.32657579 3.65695162 15.93635669 5.609375 22.63671875 C5.73828125 23.41660156 5.8671875 24.19648438 6 25 C5.34 25.66 4.68 26.32 4 27 C3.51779737 25.12577848 3.03938167 23.25058246 2.5625 21.375 C2.29566406 20.33085937 2.02882813 19.28671875 1.75390625 18.2109375 C0.64281579 13.4787284 -0.13624764 8.99234414 -0.0625 4.125 C-0.05347656 3.34382813 -0.04445313 2.56265625 -0.03515625 1.7578125 C-0.02355469 1.17773438 -0.01195313 0.59765625 0 0 Z " fill="#6384B7" transform="translate(115,441)"/>
<path d="M0 0 C-1.39750048 3.15835107 -3.05198234 5.32272825 -5.5 7.75 C-6.41265625 8.67039062 -6.41265625 8.67039062 -7.34375 9.609375 C-9 11 -9 11 -11 11 C-11.33 12.32 -11.66 13.64 -12 15 C-12.66 15 -13.32 15 -14 15 C-12.57731065 10.51367848 -10.33752711 7.96196337 -7 4.6875 C-6.113125 3.80449219 -5.22625 2.92148437 -4.3125 2.01171875 C-2 0 -2 0 0 0 Z " fill="#E2EDF6" transform="translate(193,262)"/>
<path d="M0 0 C0.66 0.33 1.32 0.66 2 1 C0.38113585 2.67262717 -1.2452729 4.33795537 -2.875 6 C-4.23238281 7.3921875 -4.23238281 7.3921875 -5.6171875 8.8125 C-8 11 -8 11 -10 11 C-10.33 11.99 -10.66 12.98 -11 14 C-11.66 14 -12.32 14 -13 14 C-11.54238919 10.63163511 -9.6759774 8.43494248 -7.0625 5.875 C-6.37285156 5.19179688 -5.68320312 4.50859375 -4.97265625 3.8046875 C-3 2 -3 2 0 0 Z " fill="#DCE9F4" transform="translate(295,262)"/>
<path d="M0 0 C0.66 0 1.32 0 2 0 C4 3 4 3 4 6 C4.66 6 5.32 6 6 6 C6.99 7.485 6.99 7.485 8 9 C11.56769552 9.73606499 11.56769552 9.73606499 15 10 C14.67 10.66 14.34 11.32 14 12 C10.08245101 12.45552895 8.49592533 12.38059386 5.3125 9.9375 C2.73564539 6.6641982 1.44641841 3.88249151 0 0 Z " fill="#4F72A9" transform="translate(257,279)"/>
<path d="M0 0 C-1.59092052 4.13639336 -4.60474918 7.23213248 -8 10 C-8.66 10 -9.32 10 -10 10 C-10 10.66 -10 11.32 -10 12 C-10.66 11.67 -11.32 11.34 -12 11 C-10.89718873 9.72799029 -9.79269231 8.45744147 -8.6875 7.1875 C-8.07261719 6.47980469 -7.45773437 5.77210938 -6.82421875 5.04296875 C-2.32122371 0 -2.32122371 0 0 0 Z " fill="#D9E5F2" transform="translate(309,381)"/>
<path d="M0 0 C1.23578845 3.70736536 0.62471794 6.18227929 0 10 C0 10.66 0 11.32 0 12 C0.99 12.33 1.98 12.66 3 13 C3 13.66 3 14.32 3 15 C-0.16115776 13.63016497 -0.9927092 13.0109362 -3 10 C-2.70295038 5.84130536 -2.33061852 3.49592778 0 0 Z " fill="#5779AE" transform="translate(281,386)"/>
<path d="M0 0 C0.66 0.33 1.32 0.66 2 1 C1.50628906 1.55429687 1.01257813 2.10859375 0.50390625 2.6796875 C-0.13675781 3.40414063 -0.77742187 4.12859375 -1.4375 4.875 C-2.07558594 5.59429687 -2.71367187 6.31359375 -3.37109375 7.0546875 C-5.05014465 8.90750491 -5.05014465 8.90750491 -6 11 C-6.66 11 -7.32 11 -8 11 C-6.85373196 7.12032356 -5.77395969 3.99587647 -3 1 C-2.01 0.67 -1.02 0.34 0 0 Z " fill="#4870AB" transform="translate(133,267)"/>
<path d="M0 0 C4.39484471 1.34286922 6.6842714 2.99200819 9 7 C8.75 10.8125 8.75 10.8125 8 14 C7.67 14 7.34 14 7 14 C6.67 11.03 6.34 8.06 6 5 C5.34 5 4.68 5 4 5 C4 4.34 4 3.68 4 3 C2.68 2.67 1.36 2.34 0 2 C0 1.34 0 0.68 0 0 Z " fill="#4D71A7" transform="translate(186,165)"/>
<path d="M0 0 C5.6143991 1.56448671 10.86810338 3.16395187 16 6 C13.13421241 7.16161779 11.98369837 6.9946154 8.984375 6.00390625 C7.91703125 5.52824219 6.8496875 5.05257812 5.75 4.5625 C4.67234375 4.08941406 3.5946875 3.61632812 2.484375 3.12890625 C1.66453125 2.75636719 0.8446875 2.38382813 0 2 C0 1.34 0 0.68 0 0 Z " fill="#4E74AB" transform="translate(288,149)"/>
<path d="M0 0 C3.83663072 1.34929464 6.65172569 3.07751025 9.8125 5.625 C10.99779297 6.57246094 10.99779297 6.57246094 12.20703125 7.5390625 C12.79871094 8.02117187 13.39039063 8.50328125 14 9 C13.01 9.495 13.01 9.495 12 10 C10.18386638 8.71344735 8.37219046 7.42060005 6.5625 6.125 C5.55316406 5.40570313 4.54382813 4.68640625 3.50390625 3.9453125 C1 2 1 2 0 0 Z " fill="#4970AA" transform="translate(141,501)"/>
<path d="M0 0 C1.485 0.99 1.485 0.99 3 2 C3.56741497 7.86328807 3.67819572 9.09573904 0 14 C0 9.38 0 4.76 0 0 Z " fill="#4F74AB" transform="translate(330,116)"/>
<path d="M0 0 C1.9375 1.5 1.9375 1.5 3 3 C2.67 3.99 2.34 4.98 2 6 C1.67 5.01 1.34 4.02 1 3 C-2.3 3 -5.6 3 -9 3 C-9 2.34 -9 1.68 -9 1 C-5.95016004 -0.52491998 -3.3576631 -0.23562548 0 0 Z " fill="#5175A9" transform="translate(272,99)"/>
<path d="M0 0 C0.33 0 0.66 0 1 0 C1.61528766 5.07612318 -0.38341651 7.82982006 -3 12 C-3.66 12 -4.32 12 -5 12 C-3.68938409 7.76570244 -2.05643741 3.92592596 0 0 Z " fill="#4D74AC" transform="translate(204,182)"/>
<path d="M0 0 C3.85055455 0.45300642 5.40551758 1.7566636 8.1875 4.375 C6.39543453 4.23415204 4.60385083 4.08716299 2.8125 3.9375 C1.81476563 3.85628906 0.81703125 3.77507812 -0.2109375 3.69140625 C-2.8125 3.375 -2.8125 3.375 -4.8125 2.375 C-2.8125 0.375 -2.8125 0.375 0 0 Z " fill="#5F7FAF" transform="translate(168.8125,155.625)"/>
<path d="M0 0 C0.66 0.33 1.32 0.66 2 1 C0.1875 3.5 0.1875 3.5 -2 6 C-2.99 6 -3.98 6 -5 6 C-5.33 6.66 -5.66 7.32 -6 8 C-6.66 7.34 -7.32 6.68 -8 6 C-5.36 4.02 -2.72 2.04 0 0 Z " fill="#567AB1" transform="translate(238,492)"/>
<path d="M0 0 C0.66 0.33 1.32 0.66 2 1 C0 4 0 4 -3 5 C-3.99 6.485 -3.99 6.485 -5 8 C-6.32 7.67 -7.64 7.34 -9 7 C-6.03 4.69 -3.06 2.38 0 0 Z " fill="#5278B0" transform="translate(324,348)"/>
<path d="M0 0 C4.41889613 1.35021826 6.34345343 3.26115668 9 7 C6 7 6 7 4.39453125 5.46875 C3.87246094 4.8190625 3.35039062 4.169375 2.8125 3.5 C2.28269531 2.8503125 1.75289062 2.200625 1.20703125 1.53125 C0.80871094 1.0259375 0.41039062 0.520625 0 0 Z " fill="#4D72AD" transform="translate(242,262)"/>
<path d="M0 0 C4.02550319 1.3418344 4.88285636 3.4227573 7 7 C7 7.66 7 8.32 7 9 C6.34 9 5.68 9 5 9 C2.82796 6.03812728 1.16438003 3.49314009 0 0 Z " fill="#4B71A9" transform="translate(215,414)"/>
<path d="M0 0 C0.99 0.33 1.98 0.66 3 1 C1.35 2.65 -0.3 4.3 -2 6 C-2.99 5.67 -3.98 5.34 -5 5 C-3.35 3.35 -1.7 1.7 0 0 Z " fill="#4870AD" transform="translate(293,373)"/>
<path d="M0 0 C0.33 0 0.66 0 1 0 C1.25 6.625 1.25 6.625 -1 10 C-1.66 10 -2.32 10 -3 10 C-2.01 6.7 -1.02 3.4 0 0 Z " fill="#5177B0" transform="translate(360,307)"/>
</svg>
